<?xml version="1.0" encoding="UTF-8"?>
<svg version="1.1" xmlns="http://www.w3.org/2000/svg" width="844" height="853">
<path d="M0 0 C0.97049789 0.28419296 0.97049789 0.28419296 1.96060181 0.5741272 C92.98353636 27.31704498 180.92121276 63.66215658 254.0625 125.4375 C254.70622559 125.97681152 255.34995117 126.51612305 256.01318359 127.07177734 C262.6316773 132.6180106 269.02682298 138.23109391 275.0546875 144.42578125 C276.98831646 146.36317213 278.98457277 148.15700157 281.0625 149.9375 C287.69740435 155.64905782 293.70003369 161.90740745 299.390625 168.55078125 C301.00454468 170.37209716 302.68747231 172.06017968 304.4375 173.75 C308.20390094 177.44914378 311.44442973 181.5153721 314.75 185.625 C316.90599735 188.24715894 319.13817103 190.75358568 321.4375 193.25 C325.95783573 198.21688536 330.07190493 203.4424979 334.18359375 208.74609375 C336.08637011 211.19863309 338.01451482 213.62659646 339.97265625 216.03515625 C347.72289925 225.56996936 354.96724893 235.40755322 362.0625 245.4375 C362.63790527 246.24912598 363.21331055 247.06075195 363.80615234 247.89697266 C370.65449208 257.57089084 377.44666452 267.28373601 383.92138672 277.21313477 C386.03121025 280.4453959 388.14131315 283.53635668 390.55078125 286.55859375 C394.69940073 291.87147945 396.57686542 296.22048741 396.7578125 302.94140625 C396.78921829 303.73752319 396.82062408 304.53364014 396.85298157 305.35388184 C397.31926224 319.31688419 397.2493358 333.30420037 397.24780273 347.2734375 C397.24772217 350.68755471 397.2545653 354.10153574 397.26831055 357.515625 C397.38506668 387.01692247 396.68097125 416.47384819 393.3125 445.8125 C393.22946625 446.55412384 393.1464325 447.29574768 393.06088257 448.05984497 C382.49091128 541.80263773 349.97870687 627.66973198 291.41455078 713.50878906 C290.02751393 715.4874079 288.65198906 717.47369408 287.27734375 719.4609375 C279.82786047 730.17882618 271.96503606 740.55861051 264.00683594 750.90234375 C262.1740996 753.29198891 260.35388095 755.69048104 258.5390625 758.09375 C255.9004453 761.5866514 253.23588198 765.05790785 250.54882812 768.51367188 C249.56725225 769.78417415 248.59437659 771.06145167 247.63085938 772.34570312 C246.27738395 774.14592009 244.89349725 775.91817381 243.5 777.6875 C242.73558594 778.68265625 241.97117187 779.6778125 241.18359375 780.703125 C237.09700567 784.87788661 231.4327551 786.47140162 226.0625 788.4375 C224.89291748 788.87368652 223.72333496 789.30987305 222.51831055 789.75927734 C218.58508213 791.20382146 214.64056337 792.61090095 210.6875 794 C209.59636398 794.3839241 209.59636398 794.3839241 208.48318481 794.77560425 C147.63802349 816.1250858 85.45117996 832.71274119 21.0625 838.4375 C20.08587402 838.53321289 19.10924805 838.62892578 18.10302734 838.72753906 C-15.40257953 841.62931287 -50.60372105 840.92691439 -83.9375 836.4375 C-84.6678949 836.34039734 -85.39828979 836.24329468 -86.15081787 836.14324951 C-110.35948668 832.89779355 -134.21959891 828.25537051 -157.9375 822.4375 C-158.60342163 822.27461487 -159.26934326 822.11172974 -159.95544434 821.94390869 C-193.7867238 813.62187109 -227.09572538 802.50878016 -259.6875 790.25 C-260.39550751 789.98795776 -261.10351501 789.72591553 -261.83297729 789.45593262 C-263.80630457 788.7214518 -265.77118604 787.96813366 -267.734375 787.20703125 C-268.82073242 786.79042236 -269.90708984 786.37381348 -271.02636719 785.94458008 C-275.68402624 783.53333139 -278.78929982 779.81268759 -281.9609375 775.71484375 C-282.49928223 775.02189209 -283.03762695 774.32894043 -283.59228516 773.61499023 C-284.15995605 772.87579346 -284.72762695 772.13659668 -285.3125 771.375 C-285.91755371 770.59133057 -286.52260742 769.80766113 -287.14599609 769.00024414 C-297.85521125 755.09036836 -308.35652183 741.05254211 -318.39111328 726.64746094 C-320.0400961 724.2908786 -321.70438978 721.94564099 -323.37109375 719.6015625 C-331.28484802 708.44284242 -338.79549455 697.10472516 -345.9375 685.4375 C-346.5267627 684.47682617 -347.11602539 683.51615234 -347.72314453 682.52636719 C-356.56794426 668.06227427 -365.07494482 653.45969067 -372.9375 638.4375 C-373.51999512 637.32842285 -374.10249023 636.2193457 -374.70263672 635.07666016 C-407.6905295 572.00276725 -426.50538124 503.27141743 -432.625 432.4375 C-432.68602905 431.73213104 -432.74705811 431.02676208 -432.80993652 430.30001831 C-433.23104759 425.34877527 -433.59986669 420.39510093 -433.9375 415.4375 C-434.01218506 414.37166687 -434.01218506 414.37166687 -434.08837891 413.28430176 C-435.13841471 397.74429171 -435.09202782 382.18868921 -435.06787109 366.62158203 C-435.06219547 362.9400308 -435.06555098 359.25855219 -435.07130814 355.57700348 C-435.14845286 297.52433545 -435.14845286 297.52433545 -429.5625 289.875 C-428.47582031 288.34746094 -428.47582031 288.34746094 -427.3671875 286.7890625 C-426.77695801 285.97937012 -426.77695801 285.97937012 -426.17480469 285.15332031 C-424.41967794 282.71941527 -422.73997189 280.23628375 -421.05297852 277.75488281 C-407.03054153 257.16624477 -392.5460892 236.85842411 -376.9375 217.4375 C-376.4233252 216.7971582 -375.90915039 216.15681641 -375.37939453 215.49707031 C-365.927023 203.74762201 -356.36740001 192.09390611 -346.203125 180.94921875 C-344.33129223 178.87406621 -342.4922085 176.77799646 -340.66015625 174.66796875 C-336.91045332 170.37450376 -333.03860463 166.20648397 -329.125 162.0625 C-328.42503906 161.32080566 -327.72507812 160.57911133 -327.00390625 159.81494141 C-319.98371735 152.39808593 -312.95788716 145.04867774 -305.1875 138.40625 C-302.84861886 136.359729 -300.57680093 134.25354957 -298.30615234 132.13208008 C-292.05320651 126.29412063 -285.64306279 120.75602172 -278.9375 115.4375 C-277.88269216 114.58999351 -276.82800975 113.74233088 -275.7734375 112.89453125 C-255.57887784 96.75302207 -234.25611507 82.45557642 -211.9375 69.4375 C-210.86604736 68.81174072 -210.86604736 68.81174072 -209.77294922 68.17333984 C-156.78503359 37.46171994 -98.50506891 17.08580737 -39.75146484 0.515625 C-37.12945177 -0.22556113 -34.51851584 -0.98452805 -31.90869141 -1.765625 C-19.71219828 -5.34209152 -12.05005342 -3.5428253 0 0 Z " fill="#008FD3" transform="translate(439.9375,8.5625)"/>
<path d="M0 0 C0.66 0 1.32 0 2 0 C3.38818359 1.49951172 3.38818359 1.49951172 5.0234375 3.5546875 C9.02471133 8.26048391 13.57657341 11.61476589 18.625 15.125 C24.17948927 19.00282455 28.93410175 22.5400795 33 28 C35.10316798 25.89683202 34.44449765 21.51214432 34.62109375 18.6640625 C35 16 35 16 37 13 C37.77601563 13.82242188 38.55203125 14.64484375 39.3515625 15.4921875 C44.94717409 21.31295522 50.51864235 26.67055848 57.1875 31.25 C67.70175366 38.5163952 74.96977453 44.91519004 80 57 C80.71285156 56.6390625 81.42570312 56.278125 82.16015625 55.90625 C89.34859157 52.42329345 94.34135136 50.83076899 102.1875 53.0625 C111.90716518 56.60731907 120.51645857 62.93778377 129.12084961 68.57763672 C135.88057282 72.98454477 142.79375067 77.11900854 149.75195312 81.20385742 C150.56728516 81.6857251 151.38261719 82.16759277 152.22265625 82.6640625 C152.95234619 83.09154785 153.68203613 83.5190332 154.43383789 83.95947266 C154.95067139 84.30284668 155.46750488 84.6462207 156 85 C156 85.33 156 85.66 156 86 C155.26998779 86.01458252 154.53997559 86.02916504 153.7878418 86.04418945 C150.42057858 86.11951437 147.05421721 86.21589144 143.6875 86.3125 C142.53958984 86.33505859 141.39167969 86.35761719 140.20898438 86.38085938 C131.86841369 86.64076384 122.58726722 87.12743811 115.5 92.0625 C109.82798083 98.72712252 109.52196528 107.47070118 108.625 115.8984375 C108.20417708 119.13989409 107.46577617 122.22741301 106.64257812 125.38989258 C104.9247227 132.17616529 103.49282938 139.00522088 102.09375 145.86328125 C101.81386674 147.22315443 101.5336275 148.58295437 101.25306702 149.94268799 C100.64991252 152.86648318 100.04769468 155.79046842 99.44631958 158.71463013 C94.6979561 181.79366676 89.84876521 204.84725213 84.78515625 227.859375 C84.56725307 228.85067602 84.3493499 229.84197704 84.1248436 230.86331749 C81.96956269 240.66715412 79.80743713 250.46940388 77.62523746 260.2672863 C76.81287424 263.9209721 76.00623891 267.5759072 75.20083427 271.23113251 C74.82396718 272.9346766 74.44442924 274.63763237 74.06202888 276.33994293 C73.53670502 278.67906297 73.02042298 281.02001191 72.50610352 283.36157227 C72.35197243 284.03696202 72.19784134 284.71235178 72.03903961 285.40820789 C70.33491911 293.27077536 70.74597318 298.41915784 74.6875 305.375 C77.71823261 311.07113872 80.12552374 316.67822218 81.9375 322.875 C82.13625732 323.53935059 82.33501465 324.20370117 82.53979492 324.88818359 C85.31951588 334.88925687 85.23878043 345.31904266 85.5625 355.625 C85.60568359 356.91535156 85.64886719 358.20570313 85.69335938 359.53515625 C85.79852148 362.69001933 85.90066604 365.84494895 86 369 C92.72712044 365.76766698 96.80996718 360.07883682 99.30078125 353.08984375 C102.41695738 339.31947883 99.04444221 325.85271692 95.63232422 312.48583984 C92.87542433 301.64771063 90.10071836 289.37550368 95.67578125 278.98828125 C103.58888157 267.10695953 114.79657325 261.33676744 128.56225586 258.40356445 C132.64701036 257.7273402 136.67951731 257.65986936 140.8125 257.6875 C141.6897876 257.69241455 142.5670752 257.6973291 143.47094727 257.70239258 C162.72571259 258.04879716 179.6112066 267.61745594 196.35253906 276.20703125 C216.14812571 286.33999515 234.24726614 293.30432919 256.75 293.4375 C257.86914795 293.4475708 258.9882959 293.4576416 260.14135742 293.46801758 C265.77364318 293.4077678 270.22004586 293.32791553 275 290 C281.10949537 282.23928967 280.91696517 273.50257473 280 264 C278.19396571 253.19860445 275.02872422 242.55599757 271.796875 232.10546875 C270.16386217 225.7415217 269.84240301 219.38103689 269.83203125 212.8359375 C269.82870285 212.08140289 269.82537445 211.32686829 269.82194519 210.54946899 C269.81691561 208.96120811 269.81453563 207.37293681 269.81469727 205.78466797 C269.81252447 203.40183264 269.79436394 201.01947167 269.77539062 198.63671875 C269.74071167 189.40107836 269.75386092 180.01783245 272 171 C272.66 170.67 273.32 170.34 274 170 C274.51046875 171.69189453 274.51046875 171.69189453 275.03125 173.41796875 C284.13340282 203.17131137 296.53783387 231.26853536 313.25390625 257.56640625 C323.948659 274.43042814 331.18089122 293.11526923 327.37890625 313.296875 C325.05474865 321.27131796 320.53252422 329.64577497 313.74609375 334.66796875 C310.86469367 338.51628161 311.80921439 342.67010312 312.0625 347.3125 C312.43317656 361.8318532 309.30505905 374.09129732 299 385 C298.01 385.33 297.02 385.66 296 386 C295.95101562 386.70125 295.90203125 387.4025 295.8515625 388.125 C294.70853455 402.62963054 290.72775232 417.31878786 279.45458984 427.37915039 C276.98182254 430.13455525 276.88004101 433.82983297 276.25 437.375 C273.50874083 450.87873975 267.79275302 461.07911509 257 470 C255.54167518 470.88928254 254.06401489 471.74825939 252.5625 472.5625 C249.42399941 474.36040353 248.43087991 475.66439936 247.375 479.125 C247.06369141 480.29095703 247.06369141 480.29095703 246.74609375 481.48046875 C243.13458653 493.67639628 233.88276628 503.61259155 222.87890625 509.69140625 C177.76505132 530.19770395 118.00688918 513.13017619 73.87060547 497.68945312 C69.88352507 496.34678129 66.99285351 495.42458841 63 497 C60.51151767 498.75381665 60.51151767 498.75381665 58.0625 501 C44.77780991 512.22173955 29.30700249 520.78858926 13.125 527.0625 C12.35260986 527.37396973 11.58021973 527.68543945 10.78442383 528.00634766 C-0.42765195 532.14970563 -10.57546548 527.61638684 -21 523 C-35.15202346 516.3959178 -49.2782308 508.58974399 -60.05859375 497.08203125 C-63.74912223 495.02513711 -68.17021028 496.77621722 -72.07250977 497.82861328 C-73.61636353 498.31950439 -73.61636353 498.31950439 -75.19140625 498.8203125 C-76.36807861 499.18745361 -77.54475098 499.55459473 -78.75708008 499.93286133 C-80.01286865 500.32626709 -81.26865723 500.71967285 -82.5625 501.125 C-124.08250876 513.8867386 -177.91397806 529.22832596 -219.6875 510.25 C-232.03601488 503.37992753 -240.47482056 492.82014291 -246 480 C-246.2475 478.9275 -246.495 477.855 -246.75 476.75 C-248.47846383 472.94737957 -251.08357298 471.77422294 -254.5625 469.60546875 C-263.04684147 464.01722461 -270.29072 455.00534641 -272.44580078 444.91210938 C-272.78812027 442.7153541 -273.09141336 440.51758036 -273.375 438.3125 C-274.31689812 431.10029701 -276.33436677 427.52012184 -281.7109375 422.40625 C-285.64499961 418.27078539 -287.75930965 413.19399369 -290 408 C-290.53947266 406.77216797 -290.53947266 406.77216797 -291.08984375 405.51953125 C-292.11331091 402.68632816 -292.64717743 399.9731182 -293.125 397 C-293.37636719 395.4840625 -293.37636719 395.4840625 -293.6328125 393.9375 C-293.96864471 391.25084229 -294.06956677 388.70316597 -294 386 C-294.58910156 385.75636719 -295.17820312 385.51273438 -295.78515625 385.26171875 C-303.09109891 381.09977963 -306.90121298 371.11198497 -309.16796875 363.41015625 C-310.39663393 358.18073362 -309.98372955 353.01510644 -309.75 347.6875 C-309.38175747 340.41969487 -309.38175747 340.41969487 -311.80859375 333.72265625 C-314.1363678 331.22982173 -314.1363678 331.22982173 -316.671875 329.08984375 C-322.83564778 323.55692691 -325.66365096 314.24586061 -326.30078125 306.203125 C-326.32532978 297.92208648 -325.72226639 290.8980776 -323 283 C-322.70996094 282.02546875 -322.41992188 281.0509375 -322.12109375 280.046875 C-319.36783209 271.06133486 -315.21213793 263.4552712 -310.1796875 255.5546875 C-296.77034628 234.45125858 -286.14949048 212.64102328 -278 189 C-277.72687988 188.21399414 -277.45375977 187.42798828 -277.17236328 186.61816406 C-274.92847304 180.12942571 -272.85862975 173.60938742 -271 167 C-270.67 167 -270.34 167 -270 167 C-264.75136443 196.14867256 -266.66577107 222.84476867 -275.15234375 251.15625 C-278.64339463 262.86816262 -280.14166794 275.36741138 -275.4609375 286.94921875 C-273.36374389 289.89314027 -271.36426501 291.73688972 -268 293 C-263.78067208 293.53392497 -259.62141149 293.46657982 -255.375 293.375 C-253.70630859 293.37306641 -253.70630859 293.37306641 -252.00390625 293.37109375 C-240.70607012 293.25272294 -230.33878007 291.56586945 -219.75 287.625 C-218.82251953 287.28412354 -217.89503906 286.94324707 -216.93945312 286.59204102 C-205.54736321 282.26103021 -194.79053472 276.63213276 -184 271 C-164.16407231 260.67044729 -143.17811007 253.21180273 -120.734375 260.02734375 C-119.83203125 260.34832031 -118.9296875 260.66929687 -118 261 C-116.97390625 261.35191406 -115.9478125 261.70382812 -114.890625 262.06640625 C-105.56310259 265.58162925 -97.81477694 271.06093738 -93 280 C-88.10289149 292.44177039 -91.62054431 305.29964698 -94.7109375 317.73828125 C-97.85352926 330.41379076 -101.33427723 345.37931889 -95.4140625 357.7734375 C-92.77408826 361.93030301 -89.6702554 365.71106983 -86 369 C-85.34 369 -84.68 369 -84 369 C-83.99589111 368.13536133 -83.99178223 367.27072266 -83.98754883 366.37988281 C-83.78962506 342.53402674 -82.71573393 318.57360089 -69 298 C-68.59824854 292.53958933 -69.51892725 287.64926888 -70.70556641 282.36425781 C-70.8881752 281.52344099 -71.070784 280.68262417 -71.25892639 279.81632805 C-71.86638496 277.02706994 -72.48402882 274.24016825 -73.1015625 271.453125 C-73.53515652 269.47035809 -73.96803281 267.48743411 -74.40023804 265.50436401 C-75.32186671 261.28120349 -76.24765168 257.05898509 -77.17675781 252.83746338 C-79.36273262 242.90255503 -81.52519031 232.96251743 -83.68938446 223.02284622 C-84.41514136 219.69035866 -85.14166401 216.35803863 -85.8682251 213.02572632 C-89.84857829 194.75836926 -93.75047621 176.475531 -97.57164764 158.17424011 C-97.99233105 156.1616883 -98.41452328 154.14945909 -98.83721924 152.1373291 C-103.47153014 130.05178293 -103.47153014 130.05178293 -105.375 119.41308594 C-105.59647705 118.17831512 -105.8179541 116.94354431 -106.04614258 115.6713562 C-106.46129546 113.33027404 -106.86794829 110.98766191 -107.2644043 108.64334106 C-108.39582484 102.22630415 -109.47403338 96.76277599 -114 91.8125 C-121.99228659 86.98382685 -131.56670905 86.42129744 -140.6875 85.8125 C-141.78255859 85.73064453 -142.87761719 85.64878906 -144.00585938 85.56445312 C-146.67003078 85.36667621 -149.3344919 85.17868432 -152 85 C-149.86327884 82.70288936 -147.74280292 81.11436349 -145.03515625 79.5390625 C-143.84986328 78.84115601 -143.84986328 78.84115601 -142.640625 78.12915039 C-141.78984375 77.63278076 -140.9390625 77.13641113 -140.0625 76.625 C-133.61414069 72.82599854 -127.28139985 68.91466908 -121.05322266 64.76391602 C-99.48266993 50.3897353 -99.48266993 50.3897353 -90 52 C-87.60745815 52.90375948 -85.31419069 53.90619021 -83.015625 55.02734375 C-80.8791949 56.11110085 -80.8791949 56.11110085 -78 57 C-77.64808594 56.21496094 -77.29617188 55.42992187 -76.93359375 54.62109375 C-71.19988534 42.42012154 -63.40304619 36.68598452 -52.65673828 29.16503906 C-45.8717032 24.3937176 -40.22333236 19.46618315 -35 13 C-32.27893306 15.72106694 -32.39344428 17.84776311 -31.875 21.625 C-31.70742188 22.81351563 -31.53984375 24.00203125 -31.3671875 25.2265625 C-31.24601562 26.14179688 -31.12484375 27.05703125 -31 28 C-30.18402344 26.96875 -29.36804688 25.9375 -28.52734375 24.875 C-25.01926519 20.78344226 -21.03404839 17.95731052 -16.5625 15 C-6.94284289 8.82486689 -6.94284289 8.82486689 0 0 Z " fill="#282526" transform="translate(420,147)"/>
<path d="M0 0 C3.43316088 4.09584077 6.29649355 8.41776492 9.125 12.9375 C9.56714844 13.62779297 10.00929688 14.31808594 10.46484375 15.02929688 C12.90898673 18.924419 14.75434295 22.52823114 16 27 C16.66 27 17.32 27 18 27 C18.26731934 26.27981689 18.53463867 25.55963379 18.81005859 24.81762695 C20.00736258 21.98256638 21.4077551 19.52486195 23.0390625 16.91796875 C23.61914062 15.98662109 24.19921875 15.05527344 24.796875 14.09570312 C25.40015625 13.13599609 26.0034375 12.17628906 26.625 11.1875 C27.23601562 10.20845703 27.84703125 9.22941406 28.4765625 8.22070312 C29.98081715 5.81154528 31.4887274 3.40475932 33 1 C35.54740446 3.54740446 35.38730665 4.80976449 35.7109375 8.35546875 C35.81897705 9.44561279 35.9270166 10.53575684 36.03833008 11.65893555 C36.14943115 12.82336182 36.26053223 13.98778809 36.375 15.1875 C39.63593435 45.85864263 51.61160211 71.27908909 72.4375 93.875 C84.5446786 107.09473015 94.08991472 119.81142674 96 138 C110.25680672 130.26492401 118.84850191 121.45449428 124 106 C125.07613379 91.05761764 122.27780757 77.02572409 118.25 62.6875 C116.22135158 54.78585835 115.15613832 45.16858946 118.5 37.5 C124.39828307 28.09132009 133.59450273 24.42837389 143.9140625 21.44702148 C146.11795478 20.974722 148.07625614 20.88625897 150.328125 20.90234375 C151.52695312 20.90717773 151.52695312 20.90717773 152.75 20.91210938 C153.575 20.92048828 154.4 20.92886719 155.25 20.9375 C156.09046875 20.94201172 156.9309375 20.94652344 157.796875 20.95117188 C159.86461401 20.96292039 161.93231624 20.98085478 164 21 C161.75230294 22.71712479 159.54608275 24.27629746 157.125 25.75 C149.43293986 31.2882833 145.93682898 37.71202468 144 47 C141.96275186 68.90041752 149.27710947 91.0997115 154.9296875 112 C170.80979701 171.04541697 170.80979701 171.04541697 157 197 C142.26485676 220.34695371 117.36594234 230.49007988 91.9375 238.1875 C89.95752475 238.78901147 87.97828836 239.39296357 86 240 C85.12085938 240.268125 84.24171875 240.53625 83.3359375 240.8125 C77.2402813 242.92616407 73.4540696 246.09034183 68.80859375 250.50390625 C56.64139031 261.31731793 41.50882461 268.58226975 26.5 274.5625 C25.86586182 274.82643555 25.23172363 275.09037109 24.57836914 275.36230469 C15.98155336 278.61728916 8.93299877 275.53923569 1 272.0625 C0.08444336 271.66498535 -0.83111328 271.2674707 -1.77441406 270.85791016 C-14.44702631 265.196947 -26.88668068 257.75846241 -36.96484375 248.12109375 C-40.32624228 244.93275732 -43.00631987 242.73602581 -47.53125 241.52734375 C-48.41095459 241.28129395 -49.29065918 241.03524414 -50.19702148 240.78173828 C-51.12200439 240.52376465 -52.0469873 240.26579102 -53 240 C-72.51642965 234.00257671 -90.67599091 227.48843773 -107 215 C-107.74636719 214.44957031 -108.49273437 213.89914062 -109.26171875 213.33203125 C-120.44054296 204.437289 -128.25687683 190.10186644 -130 176 C-131.86573835 146.72937878 -123.26758938 117.09977209 -115.19921875 89.234375 C-110.74654833 73.61577722 -105.12347247 51.89882804 -113.2578125 36.640625 C-117.61524664 29.65960486 -122.43682251 25.42143744 -130 22 C-130 21.67 -130 21.34 -130 21 C-119.23558863 20.53590562 -110.16682735 20.91625345 -100 25 C-99.23042969 25.28875 -98.46085937 25.5775 -97.66796875 25.875 C-91.54708418 28.49656433 -86.76199943 33.24673279 -83.92675781 39.28613281 C-80.94675589 48.01260841 -83.46985329 57.95914529 -85.375 66.6875 C-85.70757812 68.28174805 -85.70757812 68.28174805 -86.046875 69.90820312 C-86.85884175 73.77937403 -87.67468279 77.64691891 -88.59936523 81.49291992 C-91.72038236 94.54863912 -90.86000093 107.18178299 -84.4375 119.0625 C-78.96754758 127.67361322 -71.10736982 133.62230291 -62 138 C-61.9175 136.72125 -61.835 135.4425 -61.75 134.125 C-59.93923328 118.27458993 -49.11812603 106.44670478 -39 95 C-13.99471059 66.69244067 -3.89790226 37.38088264 0 0 Z " fill="#FDFDFD" transform="translate(404,392)"/>
<path d="M0 0 C3.02331343 1.39329433 5.47092231 3.0420497 8.0625 5.125 C10.58890365 7.14362565 13.1068252 9.07236546 15.78515625 10.88671875 C23.02365362 15.79535589 28.06693564 21.13387128 32 29 C32.45594776 35.86800597 31.74847674 42.70165926 30.9765625 49.51953125 C30.87032562 50.49879074 30.76408875 51.47805023 30.65463257 52.48698425 C30.31644918 55.59606421 29.97108368 58.70429049 29.625 61.8125 C29.17747734 65.88126996 28.73298029 69.95036659 28.2890625 74.01953125 C28.12363449 75.52778725 28.12363449 75.52778725 27.9548645 77.06651306 C27.23559596 83.67238114 26.58139267 90.28189671 25.96875 96.8984375 C25.10243862 106.22535123 24.03244762 115.51774801 22.875 124.8125 C22.69114477 126.30660847 22.50755083 127.80074912 22.32421875 129.29492188 C21.88579 132.86365312 21.44394641 136.4319504 21 140 C23.64 140.33 26.28 140.66 29 141 C29.04898438 139.87464844 29.09796875 138.74929688 29.1484375 137.58984375 C29.55273299 129.0367898 30.2082427 120.63432825 31.44287109 112.15356445 C32.05137252 107.77966185 32.48732222 103.39515808 32.91015625 99 C33.94463844 88.46053471 35.05326853 77.9296682 36.17724609 67.39941406 C36.50047727 64.37052763 36.8225755 61.34152224 37.14453125 58.3125 C37.66112216 53.45743275 38.18157333 48.60279214 38.70458984 43.74841309 C38.89997834 41.93057344 39.09433119 40.11262214 39.28759766 38.29455566 C39.55368907 35.79243428 39.8232735 33.29071311 40.09375 30.7890625 C40.17113403 30.05400482 40.24851807 29.31894714 40.32824707 28.56161499 C40.68396677 25.30486478 41.07720903 22.14948152 42 19 C46.44581601 21.12402969 50.34445501 23.87235131 54.375 26.6875 C55.1175 27.19216797 55.86 27.69683594 56.625 28.21679688 C64.41850198 33.66260965 70.15533588 39.78724919 73 49 C73.87788078 56.80618542 72.14569623 64.28567462 70.5 71.875 C69.94550306 74.53445976 69.39399741 77.19433965 68.84765625 79.85546875 C68.70082901 80.56808365 68.55400177 81.28069855 68.40272522 82.01490784 C66.42219793 91.70920697 64.6914035 101.45019714 62.9375 111.1875 C62.59440458 113.08701078 62.25122474 114.98650632 61.90795898 116.88598633 C61.24488197 120.5569988 60.58266321 124.22816484 59.92089844 127.89941406 C58.64791684 134.95621023 57.36057828 142.01027572 56.0625 149.0625 C55.86325928 150.15522217 55.66401855 151.24794434 55.45874023 152.3737793 C55.18719116 153.84584839 55.18719116 153.84584839 54.91015625 155.34765625 C54.75683838 156.18304932 54.60352051 157.01844238 54.44555664 157.87915039 C54 160 54 160 53 163 C55.64 163.33 58.28 163.66 61 164 C61.13498901 162.69603271 61.13498901 162.69603271 61.27270508 161.36572266 C62.72537713 148.56685715 65.19583066 136.00626613 67.6875 123.375 C68.5940285 118.75576899 69.4973317 114.13591681 70.3984375 109.515625 C70.6220546 108.37066559 70.84567169 107.22570618 71.07606506 106.04605103 C72.47669252 98.82985232 73.79431142 91.60398726 75.0390625 84.359375 C75.34540557 82.59976284 75.65180036 80.84015967 75.95825195 79.08056641 C76.38422464 76.62975732 76.80377395 74.17880574 77.20199585 71.72332764 C77.56221636 69.50249772 77.94491526 67.28658614 78.33203125 65.0703125 C78.63717651 63.22590576 78.63717651 63.22590576 78.94848633 61.34423828 C80.52267122 56.33769436 83.70191514 52.33040013 88.25 49.5625 C92.68847403 47.31468912 96.30814952 47.55745236 101 49 C110.77503036 53.23884365 119.63489581 59.45339672 128 66 C128 66.33 128 66.66 128 67 C127.154375 67.20753906 126.30875 67.41507812 125.4375 67.62890625 C118.06732366 69.63057914 111.68609769 71.68300984 107 78 C103.16569657 84.78292389 101.95377256 91.68655241 100.8125 99.3125 C100.39684623 101.89185409 99.97660842 104.46988054 99.546875 107.046875 C99.43126724 107.74148331 99.31565948 108.43609161 99.19654846 109.15174866 C97.55612711 118.83430984 95.54772382 128.44592702 93.5625 138.0625 C93.36573669 139.01653717 93.16897339 139.97057434 92.96624756 140.95352173 C91.65439422 147.30449692 90.33072151 153.65295361 89 160 C88.77733459 161.0630838 88.77733459 161.0630838 88.5501709 162.14764404 C85.32235043 177.54468046 81.91546521 192.90056237 78.48223877 208.25274658 C75.90558938 219.783077 73.4539315 231.33231907 71.09130859 242.90869141 C68.89176869 253.6442143 66.48410633 264.32713608 64 275 C63.34 275 62.68 275 62 275 C60.96864692 273.7280981 60.00077765 272.40453527 59.0625 271.0625 C51.83047454 261.54903146 40.15412558 252.5304128 28.86791992 248.17773438 C27 247 27 247 26.39941406 244.98413086 C26.35526367 244.17339111 26.31111328 243.36265137 26.265625 242.52734375 C26.18344727 241.1813208 26.18344727 241.1813208 26.09960938 239.80810547 C26.05030273 238.41809326 26.05030273 238.41809326 26 237 C25.96197266 236.13906738 25.92394531 235.27813477 25.88476562 234.39111328 C25.56794747 225.11010131 25.37045321 216.35656248 28.3203125 207.46484375 C33.18368446 189.8281328 21.78231189 171.37218021 13.45727539 156.5715332 C12.33758188 154.60651765 11.21203301 152.64494553 10.0859375 150.68359375 C2 136.5424845 2 136.5424845 2 133 C1.34 133 0.68 133 0 133 C-0.15710449 133.53367187 -0.31420898 134.06734375 -0.47607422 134.6171875 C-2.40239255 140.79851712 -5.05496844 146.31297974 -8.125 152 C-8.60710937 152.90991699 -9.08921875 153.81983398 -9.5859375 154.75732422 C-11.89557169 159.10992102 -14.23817628 163.44277835 -16.6171875 167.7578125 C-24.05836387 181.31772015 -27.69918235 193.34645326 -26 209 C-25.50113281 210.38638672 -25.50113281 210.38638672 -24.9921875 211.80078125 C-23.44967442 216.774475 -23.75263445 221.70135654 -23.8125 226.875 C-23.8134668 228.45087891 -23.8134668 228.45087891 -23.81445312 230.05859375 C-23.8312565 233.04212546 -23.90249366 236.01812618 -24 239 C-24.01341431 240.19641113 -24.01341431 240.19641113 -24.02709961 241.41699219 C-24.140625 243.5390625 -24.140625 243.5390625 -25 247 C-27.58984375 249.03125 -27.58984375 249.03125 -30.9375 250.5 C-37.43628023 253.62851565 -42.5687172 257.29412826 -48 262 C-49.09828125 262.91652344 -49.09828125 262.91652344 -50.21875 263.8515625 C-54.27232454 267.28500064 -57.73130523 270.81198482 -61 275 C-63.0313648 271.9529528 -63.56123659 270.13180822 -64.296875 266.6015625 C-64.53003418 265.498125 -64.76319336 264.3946875 -65.00341797 263.2578125 C-65.24979004 262.05898438 -65.49616211 260.86015625 -65.75 259.625 C-66.01312988 258.37203125 -66.27625977 257.1190625 -66.54736328 255.828125 C-67.86390451 249.5426012 -69.1544722 243.25178643 -70.4453125 236.9609375 C-70.92169614 234.64058827 -71.39825984 232.320276 -71.875 230 C-72.11629639 228.824375 -72.35759277 227.64875 -72.60620117 226.4375 C-74.66395107 216.47854789 -76.84723143 206.54991477 -79.0625 196.625 C-79.23503296 195.85153229 -79.40756592 195.07806458 -79.58532715 194.28115845 C-80.97004211 188.0750926 -82.35767247 181.86967911 -83.74658203 175.66455078 C-87.50157149 158.84031912 -90.77063298 141.93101764 -94 125 C-94.46182066 122.58976344 -94.92404566 120.17960432 -95.38671875 117.76953125 C-95.60457031 116.63410889 -95.82242187 115.49868652 -96.046875 114.32885742 C-96.46814065 112.13984939 -96.89126453 109.951198 -97.31640625 107.76293945 C-98.1841085 103.29307555 -99.04134272 98.82558839 -99.80078125 94.3359375 C-101.25302915 85.9479368 -103.15869379 79.84130621 -109.25 73.75 C-114.3760275 70.4879825 -119.9193448 67.78460067 -126 67 C-122.66514848 63.37188264 -118.962199 60.75484498 -114.875 58.0625 C-114.20919922 57.62373535 -113.54339844 57.1849707 -112.85742188 56.73291016 C-97.2140838 46.55718324 -97.2140838 46.55718324 -90 48 C-85.17831444 50.52024237 -80.85433531 53.29062547 -78 58 C-77.09981621 61.0576996 -76.54900608 64.16610527 -75.984375 67.30078125 C-75.71939713 68.69926804 -75.71939713 68.69926804 -75.44906616 70.12600708 C-74.87214746 73.18629843 -74.31089662 76.24923515 -73.75 79.3125 C-73.35350309 81.43447605 -72.95619712 83.55630107 -72.55810547 85.67797852 C-71.35475091 92.11551422 -70.17350369 98.55696245 -69 105 C-68.82303589 105.97151001 -68.64607178 106.94302002 -68.46374512 107.94396973 C-66.66101295 117.855795 -64.88091868 127.7715162 -63.13146973 137.69288635 C-62.49208424 141.30173362 -61.83200859 144.90530707 -61.13964844 148.50439453 C-60.99977509 149.23392838 -60.85990173 149.96346222 -60.71578979 150.71510315 C-60.3293624 152.71965761 -59.93804098 154.72326686 -59.54638672 156.72680664 C-59 160 -59 160 -59 164 C-56.36 163.67 -53.72 163.34 -51 163 C-51.24524414 161.86771973 -51.49048828 160.73543945 -51.74316406 159.56884766 C-54.32448298 147.54404504 -56.5952119 135.48253417 -58.75 123.375 C-60.83900495 111.68915484 -62.96672182 100.01547304 -65.296875 88.375 C-65.48272156 87.4429776 -65.66856812 86.5109552 -65.86004639 85.5506897 C-66.74782656 81.10578437 -67.64636349 76.66346831 -68.56152344 72.22412109 C-71.15277038 59.4592344 -73.07614944 49.50124005 -65.7734375 38.08203125 C-59.92093491 30.49255597 -49.14902969 22.04967656 -40 19 C-39.53361164 21.89471708 -39.0770401 24.79053144 -38.625 27.6875 C-38.49867188 28.46544922 -38.37234375 29.24339844 -38.2421875 30.04492188 C-37.15560082 37.0805706 -36.48934708 44.13567684 -35.83731079 51.22135925 C-35.15740047 58.53188219 -34.38038011 65.82869 -33.5625 73.125 C-33.43571869 74.25633865 -33.30893738 75.38767731 -33.17831421 76.55329895 C-32.78680819 80.03567668 -32.3937081 83.51787058 -32 87 C-29.04301523 113.1528875 -29.04301523 113.1528875 -27.8125 125.8125 C-27.72863037 126.65989746 -27.64476074 127.50729492 -27.55834961 128.38037109 C-27.15811296 132.60552299 -26.91102362 136.74966689 -27 141 C-24.36 140.67 -21.72 140.34 -19 140 C-19.27058886 137.64759545 -19.54142777 135.29522 -19.8125 132.94287109 C-20.06939456 130.71277208 -20.3258849 128.48262648 -20.58203125 126.25244141 C-21.34106961 119.65829562 -22.10902274 113.06535399 -22.89221191 106.47402954 C-25.01066051 88.64320628 -27.11087141 70.81370846 -28.8125 52.9375 C-28.93625 51.66181152 -29.06 50.38612305 -29.1875 49.07177734 C-31.03835474 28.96550678 -31.03835474 28.96550678 -25.18359375 20.6015625 C-21.61725998 16.35258524 -17.52353626 13.17452915 -13 10 C-12.08992188 9.35933594 -11.17984375 8.71867188 -10.2421875 8.05859375 C-8.546279 6.8744244 -6.84270754 5.70109129 -5.12890625 4.54296875 C-3.21115428 3.15303842 -1.61285923 1.72695217 0 0 Z " fill="#FDFDFD" transform="translate(420,159)"/>
<path d="M0 0 C0.33 0 0.66 0 1 0 C1.84064221 12.95211702 -1.68224839 25.56289844 -5.28588867 37.88476562 C-7.62174851 45.89550297 -8.26239091 53.41692736 -8.375 61.75 C-8.41238281 62.78382813 -8.44976562 63.81765625 -8.48828125 64.8828125 C-8.5786745 72.85750584 -6.96372722 79.57433956 -1.52099609 85.65136719 C7.96844677 94.06544141 22.22983158 91.52919858 34 91 C57.69106275 89.24577284 79.97729868 77.04763185 100.48291016 65.91845703 C109.58590753 60.99056929 115.47396639 59.8587201 125.5 62.5625 C132.5238326 64.89835163 137.31246594 67.85767542 141.37109375 74.11328125 C147.93479336 87.62678045 143.22235243 104.17730154 140 118 C139.76442383 119.02464355 139.52884766 120.04928711 139.28613281 121.10498047 C134.78246262 140.60616675 134.78246262 140.60616675 131.9375 150.0625 C130.07447828 156.37172481 128.67445789 162.75524432 127.3125 169.1875 C127.09779053 170.18595947 126.88308105 171.18441895 126.66186523 172.21313477 C121.99429199 194.78270685 121.40999185 218.82226372 134 239 C149.62972835 261.40668088 174.89990312 271.84696674 200 280 C189.94239786 290.05760214 161.81392453 292.13651493 148 295 C146.70280029 295.26925293 146.70280029 295.26925293 145.37939453 295.54394531 C142.65095881 296.10344856 139.91998337 296.64813582 137.1875 297.1875 C136.36459473 297.35451416 135.54168945 297.52152832 134.69384766 297.69360352 C108.77131698 302.68542483 76.88636713 304.11958965 54 289 C47.77509686 284.13544914 43.07632694 278.31207358 40 271 C40 270.34 40 269.68 40 269 C45.15540864 269.53331814 50.25485182 270.19471848 55.375 271 C64.21140865 272.29833197 73.0837385 272.63878685 82 273 C82 270.36 82 267.72 82 265 C81.38181396 265.01571045 80.76362793 265.0314209 80.12670898 265.04760742 C58.61976193 265.52066046 38.49427188 264.35640381 21.91015625 249.07421875 C16.26620936 243.32517042 12.9201448 236.83796811 11 229 C11.37890625 226.61328125 11.37890625 226.61328125 12 225 C13.155 225.598125 14.31 226.19625 15.5 226.8125 C28.15979303 232.37334367 42.39883767 232.57126771 56 233 C56 230.36 56 227.72 56 225 C54.97003906 225.03480469 53.94007813 225.06960938 52.87890625 225.10546875 C34.6258515 225.53383249 16.96193569 223.58937761 3.0390625 210.4765625 C-2.74297884 203.45392991 -8 193.15396165 -8 184 C-3.75592011 185.39118631 0.43512576 186.89158088 4.625 188.4375 C16.67771646 192.71955182 28.33615629 194.7246129 41 196 C41 193.36 41 190.72 41 188 C40.40316406 188.04640625 39.80632812 188.0928125 39.19140625 188.140625 C19.92587658 188.94216264 -1.13717526 181.13984864 -15.375 168.3125 C-22.3127266 161.03287311 -25.16077914 151.0779142 -25.0625 141.25 C-25.05347656 140.07953125 -25.04445313 138.9090625 -25.03515625 137.703125 C-25.02355469 136.81109375 -25.01195313 135.9190625 -25 135 C-21.99131977 136.13635085 -19.09641581 137.4179638 -16.21484375 138.83984375 C-2.28207452 145.70521905 10.62932644 148.45200562 26 150 C26 147.36 26 144.72 26 142 C25.23558594 142.04640625 24.47117187 142.0928125 23.68359375 142.140625 C5.64121788 142.74855102 -11.56956958 136.02199577 -25 124 C-25.77085938 123.32195312 -26.54171875 122.64390625 -27.3359375 121.9453125 C-35.14537803 114.65477167 -40.45363741 106.51472474 -41.23828125 95.72265625 C-41.64592173 75.61954413 -32.72878561 59.79693174 -22.36035156 43.21508789 C-13.84333888 29.45041133 -6.48790431 14.82543047 0 0 Z " fill="#FDFDFD" transform="translate(143,357)"/>
<path d="M0 0 C2.30901208 2.88521822 3.92917184 5.7275306 5.4609375 9.0859375 C5.92612793 10.08874756 6.39131836 11.09155762 6.87060547 12.12475586 C7.36705566 13.19733643 7.86350586 14.26991699 8.375 15.375 C14.18878375 27.72636829 20.87316968 39.37122529 28 51 C37.69744027 66.90491183 45.27332862 83.15580004 41.3125 102.3125 C35.25810226 119.32247462 22.02484808 128.76572073 6.34765625 136.26953125 C-3.71411571 140.62365299 -14.06556842 142.59164259 -25 142 C-25 144.64 -25 147.28 -25 150 C-8.91237719 148.6277673 4.23130248 145.24708709 18.56640625 137.70703125 C21.21673953 136.38940253 23.18201802 135.62078066 26 135 C26.59699594 149.10679284 24.10695545 159.33568259 14.6875 170 C5.76977784 178.54755256 -7.25963207 183.04937843 -19 186 C-20.30710937 186.33644531 -20.30710937 186.33644531 -21.640625 186.6796875 C-27.78475507 188.09013245 -33.71527256 188.21506672 -40 188 C-40 190.64 -40 193.28 -40 196 C-23.48991251 194.04776907 -8.12215778 191.16312737 7 184 C7.66 184 8.32 184 9 184 C6.84774343 197.56488021 1.66742506 208.23228069 -9.6015625 216.46875 C-23.19559974 225.14767931 -39.41889747 225.48188977 -55 225 C-55 227.64 -55 230.28 -55 233 C-40.25733553 232.56988202 -26.84930502 231.48746048 -13 226 C-12.01 226 -11.02 226 -10 226 C-11.00897227 235.58523657 -15.19701125 244.20963275 -22 251 C-39.11973535 264.47214011 -60.12390292 265.58288999 -81 265 C-81 267.64 -81 270.28 -81 273 C-76.70756509 272.71901763 -72.41626679 272.42325195 -68.125 272.125 C-66.92101562 272.04636719 -65.71703125 271.96773437 -64.4765625 271.88671875 C-58.25232884 271.44696311 -52.25763117 270.83414197 -46.17919922 269.39794922 C-43.74840284 268.95405519 -41.46573153 268.93555413 -39 269 C-41.34198881 278.36795523 -48.40094542 285.41457503 -56 291 C-80.99312294 305.48550369 -115.88751319 301.62276005 -143 296 C-144.60488281 295.67854004 -144.60488281 295.67854004 -146.2421875 295.35058594 C-159.51139271 292.66942594 -172.59765013 289.41422868 -185.625 285.75 C-186.84743408 285.4087207 -188.06986816 285.06744141 -189.3293457 284.71582031 C-190.45042725 284.39194336 -191.57150879 284.06806641 -192.7265625 283.734375 C-193.72252441 283.44788086 -194.71848633 283.16138672 -195.74462891 282.86621094 C-198 282 -198 282 -199 280 C-198.05870239 279.66959717 -198.05870239 279.66959717 -197.09838867 279.33251953 C-179.47755526 273.08923308 -161.19492934 266.59762307 -147 254 C-146.32066406 253.46117187 -145.64132812 252.92234375 -144.94140625 252.3671875 C-132.6314809 242.36100999 -124.7941551 226.65519408 -123 211 C-121.4694707 186.90862724 -126.82953208 164.11978268 -133 141 C-133.37760417 139.57421875 -133.75520833 138.1484375 -134.1328125 136.72265625 C-134.77362075 134.31836387 -135.41668942 131.9146723 -136.0625 129.51171875 C-147.1205924 88.08994765 -147.1205924 88.08994765 -140.37890625 74.11328125 C-136.07775636 67.52143397 -130.3490244 64.31024277 -123.1015625 61.62890625 C-114.11870385 59.80744499 -107.85543686 61.32849929 -99.8125 65.5 C-98.89758789 65.95415283 -97.98267578 66.40830566 -97.04003906 66.8762207 C-91.71743275 69.53799026 -86.47487098 72.3400271 -81.25 75.1875 C-62.33250307 85.48969552 -43.25039421 91.13658844 -21.625 91.3125 C-20.44421875 91.34150391 -19.2634375 91.37050781 -18.046875 91.40039062 C-9.3398106 91.46341503 -2.74914667 90.41588919 3.8125 84.4375 C10.43899634 75.21102419 11.24988622 64.56207371 9.65429688 53.63183594 C8.07945606 44.20110313 5.84338972 35.10716136 2.8828125 26.015625 C0.39098528 17.50371964 -0.35892713 8.83359544 0 0 Z " fill="#FDFDFD" transform="translate(698,357)"/>
<path d="M0 0 C3.35344809 0.95567548 5.07919272 -0.02035228 8.2890625 -1.34765625 C9.32571045 -1.77244263 9.32571045 -1.77244263 10.38330078 -2.20581055 C11.96285831 -2.85467096 13.54048957 -3.50823476 15.11645508 -4.16577148 C51.98160728 -19.45942207 85.00060554 -15.64469491 121.18286133 -1.38818359 C139.46244061 5.8092566 155.52513519 9.11792036 175.2890625 6.65234375 C175.33281006 7.47919678 175.33281006 7.47919678 175.37744141 8.32275391 C176.87540346 33.99983487 184.17161105 57.84138438 196.2578125 80.53515625 C197.2890625 82.65234375 197.2890625 82.65234375 197.2890625 84.65234375 C160.93055546 85.49842017 160.93055546 85.49842017 145.2890625 80.65234375 C144.62229492 80.45398926 143.95552734 80.25563477 143.26855469 80.05126953 C132.6366319 76.81848604 122.54032162 72.24406355 112.45654297 67.61108398 C82.22339389 53.89911453 52.0582122 57.40836194 21.6484375 68.62646484 C16.58562182 70.54987821 16.58562182 70.54987821 11.55517578 72.55566406 C10.82024902 72.8440918 10.08532227 73.13251953 9.328125 73.4296875 C8.69084473 73.68999756 8.05356445 73.95030762 7.39697266 74.21850586 C2.18696367 75.29079981 -2.91966532 73.00537149 -7.77734375 71.2890625 C-9.15274896 70.81001328 -10.52849504 70.33194186 -11.90454102 69.85473633 C-12.61764435 69.60656158 -13.33074768 69.35838684 -14.06546021 69.10269165 C-50.47229895 56.52426498 -79.32652903 55.47228887 -114.78125 71.484375 C-136.62257236 81.32988996 -165.7570099 90.49828297 -189.7109375 83.65234375 C-189.08890557 79.03153514 -187.15393492 75.26375973 -185.0859375 71.15234375 C-180.29420067 61.30272284 -176.91184885 51.10955838 -173.7109375 40.65234375 C-173.370625 39.58757813 -173.0303125 38.5228125 -172.6796875 37.42578125 C-169.81304897 27.47854554 -169.47514752 16.93144875 -168.7109375 6.65234375 C-167.00357422 6.89210938 -167.00357422 6.89210938 -165.26171875 7.13671875 C-160.79827872 7.69035415 -156.39305143 7.87110404 -151.8984375 7.90234375 C-151.16818359 7.92296875 -150.43792969 7.94359375 -149.68554688 7.96484375 C-139.68604408 8.03446605 -130.464678 4.35032901 -121.2109375 0.90234375 C-120.26750488 0.55598877 -119.32407227 0.20963379 -118.35205078 -0.1472168 C-113.72116391 -1.84976014 -109.09958321 -3.57575324 -104.484375 -5.3203125 C-69.78746904 -18.38788985 -32.99588437 -18.15325411 0 0 Z " fill="#282526" transform="translate(417.7109375,688.34765625)"/>
<path d="M0 0 C2.83261041 2.83261041 2.90979359 6.07098338 3.625 9.875 C8.08038036 31.19488354 18.81136596 49.86619851 29.625 68.55078125 C34.58149474 77.12858503 38.73482526 85.63355322 42 95 C42.3403125 95.95777344 42.680625 96.91554688 43.03125 97.90234375 C47.47339648 112.56554024 46.3118295 129.01488514 39.6796875 142.73046875 C34.8763681 151.40531608 27.63402743 159.68603944 18 163 C14.69591954 162.63433102 12.22893754 161.06898547 9.375 159.4375 C4.13338494 156.78585944 -0.19321626 155.95023942 -6 157 C-9.90775948 158.40496369 -13.05812875 160.05812875 -16 163 C-24.06671589 162.26422989 -30.81405797 155.81598764 -36.2109375 150.21484375 C-39.21430137 146.49670551 -41.15457281 142.38467777 -43 138 C-43.52980469 136.79923828 -43.52980469 136.79923828 -44.0703125 135.57421875 C-49.29473041 121.10828849 -47.19349879 101.79239606 -41 88 C-37.97755857 81.8209878 -34.8191355 75.7140257 -31.52124023 69.67749023 C-26.04303483 59.59173569 -21.09499384 49.14085869 -19.6875 37.625 C-19.47673828 36.00464844 -19.47673828 36.00464844 -19.26171875 34.3515625 C-19.17535156 33.57554687 -19.08898437 32.79953125 -19 32 C-18.34 32 -17.68 32 -17 32 C-15.68 34.64 -14.36 37.28 -13 40 C-12.8040625 39.10023438 -12.608125 38.20046875 -12.40625 37.2734375 C-9.52661547 24.68688935 -5.7902161 11.5804322 0 0 Z " fill="#F8CF06" transform="translate(422,427)"/>
<path d="M0 0 C0 13.2 0 26.4 0 40 C-5.62499454 38.75000121 -9.97452662 37.73989295 -15.12231445 35.63891602 C-40.48290363 25.34598265 -72.09691003 19.09246233 -98.38671875 29.69921875 C-103.72686572 31.9801224 -108.94308172 34.50850021 -114.16064453 37.05419922 C-132.18130598 45.83880573 -149.65427937 52.63913259 -170 52 C-169.74476563 51.06994141 -169.74476563 51.06994141 -169.484375 50.12109375 C-168.96079042 48.20778201 -168.44029174 46.29362469 -167.921875 44.37890625 C-167.29790517 42.09189819 -166.66213371 39.80808281 -166.015625 37.52734375 C-163.3916394 28.09108786 -161.56101543 18.66173947 -160 9 C-158.94425781 8.99742187 -157.88851563 8.99484375 -156.80078125 8.9921875 C-137.48039068 8.62460185 -120.25145257 1.974098 -102.4753418 -5.04052734 C-66.97802733 -18.96036363 -34.40141727 -15.28951879 0 0 Z " fill="#FDFDFD" transform="translate(417,696)"/>
<path d="M0 0 C15.68207853 6.10781774 29.85118042 9.39168201 46.7121582 9.78198242 C46.88231445 10.83514648 47.0524707 11.88831055 47.2277832 12.97338867 C48.8564195 22.77036796 51.00171762 32.22015036 53.7121582 41.78198242 C54.29746441 43.92727847 54.88100607 46.07305733 55.4621582 48.21948242 C55.87837349 49.74043935 56.29484703 51.26132581 56.7121582 52.78198242 C49.1764551 53.03742998 42.11914052 52.15656425 34.7121582 50.78198242 C33.76598633 50.61053711 32.81981445 50.4390918 31.8449707 50.26245117 C22.23817969 48.20005144 13.55619987 43.93544458 4.7121582 39.78198242 C3.93485352 39.41814453 3.15754883 39.05430664 2.35668945 38.67944336 C-0.61296385 37.28788471 -3.58194095 35.89523799 -6.54248047 34.484375 C-34.58282405 21.13463525 -63.6800286 24.28987501 -92.5222168 34.18432617 C-97.7513059 36.04470692 -102.93828867 38.0028622 -108.09667969 40.05102539 C-110.2878418 40.78198242 -110.2878418 40.78198242 -113.2878418 40.78198242 C-113.2878418 27.58198242 -113.2878418 14.38198242 -113.2878418 0.78198242 C-103.84807695 -3.37433195 -94.6083372 -7.39617793 -84.6628418 -10.15551758 C-83.95466309 -10.3542749 -83.24648438 -10.55303223 -82.5168457 -10.7578125 C-53.74065925 -18.36550413 -26.75003073 -10.44972244 0 0 Z " fill="#FDFDFD" transform="translate(538.287841796875,695.218017578125)"/>
<path d="M0 0 C2.83261041 2.83261041 2.90979359 6.07098338 3.625 9.875 C8.08038036 31.19488354 18.81136596 49.86619851 29.625 68.55078125 C34.58149474 77.12858503 38.73482526 85.63355322 42 95 C42.3403125 95.95777344 42.680625 96.91554688 43.03125 97.90234375 C47.47339648 112.56554024 46.3118295 129.01488514 39.6796875 142.73046875 C34.8763681 151.40531608 27.63402743 159.68603944 18 163 C14.69591954 162.63433102 12.22893754 161.06898547 9.375 159.4375 C4.13338494 156.78585944 -0.19321626 155.95023942 -6 157 C-9.90775948 158.40496369 -13.05812875 160.05812875 -16 163 C-24.06671589 162.26422989 -30.81405797 155.81598764 -36.2109375 150.21484375 C-39.21430137 146.49670551 -41.15457281 142.38467777 -43 138 C-43.52980469 136.79923828 -43.52980469 136.79923828 -44.0703125 135.57421875 C-49.29473041 121.10828849 -47.19349879 101.79239606 -41 88 C-37.97755857 81.8209878 -34.8191355 75.7140257 -31.52124023 69.67749023 C-26.04303483 59.59173569 -21.09499384 49.14085869 -19.6875 37.625 C-19.47673828 36.00464844 -19.47673828 36.00464844 -19.26171875 34.3515625 C-19.17535156 33.57554687 -19.08898437 32.79953125 -19 32 C-18.34 32 -17.68 32 -17 32 C-15.68 34.64 -14.36 37.28 -13 40 C-12.8040625 39.10023438 -12.608125 38.20046875 -12.40625 37.2734375 C-9.52661547 24.68688935 -5.7902161 11.5804322 0 0 Z M-1 21 C-1.79201177 23.68739872 -2.58361866 26.37491563 -3.375 29.0625 C-3.59671875 29.81466797 -3.8184375 30.56683594 -4.046875 31.34179688 C-4.48912181 32.84413532 -4.9296371 34.34698457 -5.3684082 35.8503418 C-5.94340889 37.80738898 -6.5352489 39.75946871 -7.12890625 41.7109375 C-10.15799896 53.14813958 -6.64104611 61.14516042 -1 71 C0.08637324 72.97749968 1.16996509 74.95653145 2.25 76.9375 C2.93835938 78.15759766 2.93835938 78.15759766 3.640625 79.40234375 C8.59473169 88.86924304 9.63640328 98.12403315 7.16796875 108.49609375 C6.20646997 111.3805901 5.13891784 114.18180185 4 117 C3.3221238 118.99622852 2.65254108 120.99534677 2 123 C1.34 123 0.68 123 0 123 C0.27714844 122.39671875 0.55429687 121.7934375 0.83984375 121.171875 C1.20207031 120.37265625 1.56429687 119.5734375 1.9375 118.75 C2.29714844 117.96109375 2.65679687 117.1721875 3.02734375 116.359375 C6.81918603 107.16149253 6.70627548 93.91578574 3.0625 84.75 C0.49519072 79.51298165 -2.60525817 74.55046385 -5.68115234 69.59838867 C-9.13005889 63.99191712 -11.71217142 58.17368817 -14 52 C-14.66 52 -15.32 52 -16 52 C-16.33257812 53.24136719 -16.33257812 53.24136719 -16.671875 54.5078125 C-19.19127758 62.96059071 -22.63886751 70.26842467 -27 77.9375 C-35.92514985 93.8926965 -41.95989983 110.91983123 -37.38916016 129.48046875 C-34.16711668 139.53141392 -29.24328681 147.50444584 -20 153 C-18.00226952 153.88564353 -18.00226952 153.88564353 -16 154 C-14.88625 153.360625 -13.7725 152.72125 -12.625 152.0625 C-6.76384727 148.91240481 -0.47012316 149.20727779 6 150 C8.88540515 151.08484031 11.30123941 152.4788804 14 154 C20.55750621 153.65879642 24.70388746 148.48689385 29 144 C37.8477092 132.46930491 38.08341623 118.79452512 36.6796875 104.80859375 C33.7445235 88.9545741 24.27491615 74.27716134 16.26757812 60.53637695 C8.97527077 47.9182671 4.03230876 34.97371515 0 21 C-0.33 21 -0.66 21 -1 21 Z " fill="#2A2623" transform="translate(422,427)"/>
<path d="M0 0 C11.43864141 12.97476592 22.24807166 33.99646443 21.46875 51.51171875 C19.39702276 66.92882229 9.99622421 80.67838576 1 93 C-2.9849513 89.30971059 -5.77088124 85.55536986 -8.5 80.875 C-9.08309937 79.88910889 -9.08309937 79.88910889 -9.67797852 78.88330078 C-12.8554077 73.42775237 -15.59966536 67.84177829 -18 62 C-18.54914063 60.84951172 -18.54914063 60.84951172 -19.109375 59.67578125 C-20.26401278 56.20680369 -20.32972903 52.92715009 -20.3125 49.3125 C-20.32861328 48.65572266 -20.34472656 47.99894531 -20.36132812 47.32226562 C-20.37133491 36.9652395 -15.92634654 28.31706555 -11.125 19.375 C-10.60808594 18.39015625 -10.09117187 17.4053125 -9.55859375 16.390625 C-6.58547721 10.7739061 -3.43964692 5.34351052 0 0 Z " fill="#FCFCFC" transform="translate(421,310)"/>
<path d="M0 0 C1.20527344 -0.02578125 2.41054688 -0.0515625 3.65234375 -0.078125 C7.42468801 0.28484971 9.15464807 0.84280432 12.0625 3.25 C15.50474663 8.25213182 15.37958284 12.73369789 15.375 18.5625 C15.54794755 26.36824918 16.63561658 31.34518082 22.0625 37.25 C23.67630195 40.47760391 23.46185648 42.65579169 23.0625 46.25 C19.39231404 54.0666556 12.16282489 61.96268369 4.0625 65.25 C-0.65171263 66.27519419 -4.47757074 66.00396347 -8.7890625 63.77734375 C-15.43850247 59.17036262 -21.28108067 53.56283867 -24.9375 46.25 C-25.54227769 42.09215339 -25.79149685 39.5802203 -23.48046875 35.98046875 C-22.86816406 35.16191406 -22.25585938 34.34335937 -21.625 33.5 C-17.37715566 27.43530658 -16.6896276 21.5344287 -16.00073242 14.33105469 C-15.44297828 9.00359463 -14.61355048 5.41619054 -10.9375 1.25 C-7.60141101 -0.32836469 -3.64418171 0.04667042 0 0 Z " fill="#FCFBFB" transform="translate(421.9375,592.75)"/>
<path d="M0 0 C5.41794443 0.78087811 9.6055328 2.41028984 14.5 4.75 C15.23347656 5.08515625 15.96695313 5.4203125 16.72265625 5.765625 C23.15011083 8.80113128 28.97647373 12.2457498 32 19 C33.49933411 29.30623356 31.11182306 37.84794397 25.1875 46.25 C21.18579809 51.24202208 16.39677768 56.43981032 10 58 C3.06382668 58.70537356 -1.73914133 56.86080111 -8 54 C-9.01707031 53.54496094 -10.03414062 53.08992188 -11.08203125 52.62109375 C-13.72841206 51.42869367 -16.36691989 50.2214288 -19 49 C-18.39554091 43.20553008 -16.22975629 38.3097982 -13.96484375 33.0078125 C-13.56672989 32.06187225 -13.16861603 31.11593201 -12.75843811 30.1413269 C-11.49082899 27.13329391 -10.21430703 24.1291387 -8.9375 21.125 C-8.07427823 19.08097889 -7.21164136 17.03671067 -6.34960938 14.9921875 C-4.23984098 9.99190879 -2.12275048 4.99478024 0 0 Z " fill="#222124" transform="translate(562,101)"/>
<path d="M0 0 C2.25729511 2.25729511 2.49820217 3.30355488 3.2265625 6.34765625 C3.45005371 7.25161133 3.67354492 8.15556641 3.90380859 9.08691406 C4.14180176 10.06885742 4.37979492 11.05080078 4.625 12.0625 C7.15678902 22.1928916 10.165643 32.10452075 13.45947266 42.01196289 C13.78995605 43.01348389 14.12043945 44.01500488 14.4609375 45.046875 C14.90638916 46.37477051 14.90638916 46.37477051 15.36083984 47.72949219 C16 50 16 50 16 53 C10.921875 56.3203125 10.921875 56.3203125 9 57 C5.12815328 55.61003903 2.73144247 52.93089924 -0.09765625 50.02734375 C-0.57319443 49.54423233 -1.0487326 49.06112091 -1.53868103 48.56336975 C-3.05154902 47.02615501 -4.55776579 45.482675 -6.0625 43.9375 C-8.04763132 41.89920399 -10.03925818 39.86759183 -12.03515625 37.83984375 C-12.9156665 36.93613037 -13.79617676 36.03241699 -14.70336914 35.10131836 C-16.89665502 32.8082867 -16.89665502 32.8082867 -20 32 C-19.67201416 32.87736816 -19.34402832 33.75473633 -19.00610352 34.65869141 C-17.78482246 37.93348264 -16.56842276 41.21000302 -15.35522461 44.48779297 C-14.83046015 45.90257218 -14.30379396 47.3166476 -13.77514648 48.72998047 C-13.01297702 50.76865809 -12.25781892 52.8098193 -11.50390625 54.8515625 C-10.82050171 56.68968506 -10.82050171 56.68968506 -10.12329102 58.56494141 C-9.08903504 61.72772811 -8.44286888 64.70822829 -8 68 C-10.64 69.65 -13.28 71.3 -16 73 C-16.66644531 72.38253906 -17.33289063 71.76507813 -18.01953125 71.12890625 C-24.49895451 65.17508656 -31.14528125 59.52161786 -38 54 C-39.38221002 52.87325352 -40.76366976 51.74558624 -42.14453125 50.6171875 C-43.59632311 49.43225361 -45.04814593 48.24735766 -46.5 47.0625 C-47.19504639 46.49426514 -47.89009277 45.92603027 -48.60620117 45.34057617 C-49.26209229 44.8066626 -49.9179834 44.27274902 -50.59375 43.72265625 C-51.17833984 43.24578369 -51.76292969 42.76891113 -52.36523438 42.27758789 C-53.85614151 41.11242705 -55.42559817 40.04960122 -57 39 C-55.74243422 35.22730267 -54.32532569 34.11611635 -51 32 C-46.13172811 32.14827224 -43.49359773 34.88724538 -40.1875 38.125 C-39.12952255 39.12825448 -38.0709276 40.13085818 -37.01171875 41.1328125 C-36.49915527 41.62297852 -35.9865918 42.11314453 -35.45849609 42.61816406 C-33.51388928 44.46056021 -31.51656672 46.2369229 -29.5 48 C-28.9121875 48.515625 -28.324375 49.03125 -27.71875 49.5625 C-25.86264357 51.11487992 -23.94001306 52.55450008 -22 54 C-22.22139648 53.45174561 -22.44279297 52.90349121 -22.67089844 52.33862305 C-34 24.24869927 -34 24.24869927 -34 20 C-32.03125 18.39453125 -32.03125 18.39453125 -29.5 16.8125 C-28.6646875 16.28269531 -27.829375 15.75289062 -26.96875 15.20703125 C-26.3190625 14.80871094 -25.669375 14.41039063 -25 14 C-21.09148801 15.58431453 -18.47632644 18.26635095 -15.578125 21.2265625 C-15.07327576 21.73424164 -14.56842651 22.24192078 -14.04827881 22.76498413 C-12.44407904 24.38033842 -10.84699144 26.00252209 -9.25 27.625 C-8.16061893 28.72441698 -7.0707801 29.82338059 -5.98046875 30.921875 C-3.31498115 33.6093602 -0.65584857 36.30299021 2 39 C1.7326001 38.22398437 1.4652002 37.44796875 1.18969727 36.6484375 C0.19016048 33.73563828 -0.80232876 30.82055468 -1.7902832 27.90380859 C-2.42583387 26.0343163 -3.06929038 24.16751765 -3.71289062 22.30078125 C-5.78502221 16.16727176 -7.55504177 10.47211965 -8 4 C-5.36 2.68 -2.72 1.36 0 0 Z " fill="#222124" transform="translate(261,112)"/>
<path d="M0 0 C0 2.64 0 5.28 0 8 C-3.75338073 7.33258925 -7.23668543 6.31371444 -10.83984375 5.07421875 C-51.19265893 -8.55062536 -80.4936467 -8.92608558 -119.30712891 8.78173828 C-134.62625689 15.71215067 -150.50031037 20.21897002 -167.375 20.0625 C-168.30183594 20.05798828 -169.22867188 20.05347656 -170.18359375 20.04882812 C-172.45575728 20.03711594 -174.72788727 20.01918294 -177 20 C-176.01 17.03 -175.02 14.06 -174 11 C-173.030625 10.96261719 -172.06125 10.92523437 -171.0625 10.88671875 C-146.721199 9.77597238 -126.66827208 2.06364067 -104.95800781 -8.46826172 C-71.55915816 -24.46335059 -32.10504062 -16.05252031 0 0 Z " fill="#F8F8F8" transform="translate(417,745)"/>
<path d="M0 0 C18.69079906 9.10486884 37.3493831 13.42821193 58.12133789 14.16552734 C59.11133789 17.13552734 60.10133789 20.10552734 61.12133789 23.16552734 C35.27064154 23.88065931 15.50883963 17.69979085 -7.88623047 7.12451172 C-42.07490426 -8.28107288 -74.5033594 -3.34905768 -108.96850586 9.38818359 C-110.31029907 9.8968396 -110.31029907 9.8968396 -111.67919922 10.41577148 C-113.87866211 11.16552734 -113.87866211 11.16552734 -115.87866211 11.16552734 C-115.87866211 8.52552734 -115.87866211 5.88552734 -115.87866211 3.16552734 C-104.02563735 -1.84260894 -92.27411328 -6.16139923 -79.80004883 -9.33496094 C-76.38570349 -10.22260396 -73.00876538 -11.24701126 -69.62866211 -12.25634766 C-43.79640515 -17.68699259 -22.97466612 -11.26310442 0 0 Z " fill="#F9F8F8" transform="translate(540.878662109375,741.83447265625)"/>
<path d="M0 0 C3.40156224 2.81843728 6.91492037 6.19154204 7.390625 10.765625 C7.49520424 15.89000762 7.11940408 19.41464388 4.1875 23.8125 C0.8875 26.8125 0.8875 26.8125 -1.8125 26.8125 C-1.8125 27.4725 -1.8125 28.1325 -1.8125 28.8125 C-0.92949219 29.03164062 -0.04648437 29.25078125 0.86328125 29.4765625 C4.83100602 31.07111229 6.59203351 32.96875116 9.375 36.1875 C10.21417969 37.14398438 11.05335938 38.10046875 11.91796875 39.0859375 C17.1875 45.41663081 17.1875 45.41663081 17.1875 47.8125 C13.83539883 48.99281731 10.75602728 49.80205043 7.1875 49.8125 C4.16423584 48.03963441 2.29613393 45.5739297 0.1875 42.8125 C-0.86900208 41.55742645 -1.9312468 40.30715772 -3 39.0625 C-3.73476563 38.20205078 -3.73476563 38.20205078 -4.484375 37.32421875 C-6.16686127 35.40915349 -7.52998302 33.98834208 -9.8125 32.8125 C-13.47964849 32.56186268 -13.47964849 32.56186268 -16.8125 32.8125 C-16.30037043 38.34349936 -15.1879803 43.24407114 -13.43359375 48.515625 C-12.8125 50.8125 -12.8125 50.8125 -12.8125 54.8125 C-15.7825 55.4725 -18.7525 56.1325 -21.8125 56.8125 C-25.08426178 47.19959168 -28.24253414 37.57851589 -31.04638672 27.81787109 C-32.56461521 22.55922334 -34.2733724 17.38657696 -36.11328125 12.23046875 C-36.8125 9.8125 -36.8125 9.8125 -36.8125 5.8125 C-32.83895885 4.62607229 -28.85791445 3.46703256 -24.875 2.3125 C-23.19954102 1.81169922 -23.19954102 1.81169922 -21.49023438 1.30078125 C-6.87036875 -2.90082236 -6.87036875 -2.90082236 0 0 Z " fill="#222224" transform="translate(353.8125,83.1875)"/>
<path d="M0 0 C6.0023819 7.40293767 6.0023819 7.40293767 5.98828125 10.9375 C4.95251294 16.71232535 1.85661447 21.84454395 -0.8125 27 C-1.34681641 28.05445313 -1.88113281 29.10890625 -2.43164062 30.1953125 C-5.15679314 35.5450584 -7.96202672 40.82146928 -11 46 C-9.44157564 45.17013364 -7.88322521 44.34012819 -6.32519531 43.50952148 C-4.97494694 42.79033897 -3.6240261 42.07241768 -2.27246094 41.35571289 C1.10064819 39.56350134 4.45897253 37.75306726 7.78515625 35.875 C8.92855469 35.235625 10.07195313 34.59625 11.25 33.9375 C12.28640625 33.34839844 13.3228125 32.75929688 14.390625 32.15234375 C17 31 17 31 20 32 C21.16796875 34.06640625 21.16796875 34.06640625 22.1875 36.5625 C22.70376953 37.80193359 22.70376953 37.80193359 23.23046875 39.06640625 C23.48441406 39.70449219 23.73835937 40.34257812 24 41 C17.48830996 44.28113124 10.97353493 47.55607238 4.45654297 50.82666016 C2.23837323 51.9407841 0.02092252 53.05634076 -2.19580078 54.17333984 C-5.37606362 55.77555541 -8.55884857 57.37265674 -11.7421875 58.96875 C-12.73805878 59.47184692 -13.73393005 59.97494385 -14.75997925 60.49328613 C-15.68078278 60.95376343 -16.6015863 61.41424072 -17.55029297 61.88867188 C-18.3630368 62.2972644 -19.17578064 62.70585693 -20.01315308 63.12683105 C-22 64 -22 64 -24 64 C-28.04020173 57.75605187 -28.04020173 57.75605187 -27.87890625 54.72265625 C-26.69804666 51.06461564 -24.82652488 47.9112735 -22.875 44.625 C-18.42747611 36.95308845 -14.61570831 29.09174592 -11 21 C-11.70608398 21.44915771 -12.41216797 21.89831543 -13.13964844 22.36108398 C-15.76842365 24.02967765 -18.40023313 25.69334348 -21.03417969 27.35375977 C-22.73089879 28.42543536 -24.42406658 29.50272682 -26.1171875 30.58007812 C-27.18710937 31.25361328 -28.25703125 31.92714844 -29.359375 32.62109375 C-30.34389648 33.2442749 -31.32841797 33.86745605 -32.34277344 34.50952148 C-34.64509341 35.80092754 -36.42378697 36.54836099 -39 37 C-43 31.25 -43 31.25 -43 29 C-41.05286743 27.55310637 -39.10513307 26.23958535 -37.0625 24.9375 C-35.70340468 24.05234911 -34.3454188 23.16549343 -32.98828125 22.27734375 C-32.21436035 21.77187012 -31.44043945 21.26639648 -30.64306641 20.74560547 C-25.3067646 17.22126057 -20.03339197 13.60295593 -14.75 10 C-12.5783369 8.52052197 -10.40634844 7.04152247 -8.234375 5.5625 C-7.29819336 4.92441406 -6.36201172 4.28632813 -5.39746094 3.62890625 C-3.60421889 2.41052428 -1.803875 1.20258333 0 0 Z " fill="#222123" transform="translate(716,227)"/>
<path d="M0 0 C0.78632812 0.7940625 1.57265625 1.588125 2.3828125 2.40625 C4.80470269 4.89806676 4.80470269 4.89806676 6.875 6.5 C8 8 8 8 7.85546875 10.04296875 C6.62500515 14.29621508 4.58027755 17.95154357 2.4375 21.8125 C1.96441406 22.6674707 1.49132812 23.52244141 1.00390625 24.40332031 C-3.21266484 31.87061087 -7.78645081 39.08799268 -12.5 46.25 C-13.19424072 47.31581299 -13.88848145 48.38162598 -14.60375977 49.47973633 C-15.26045654 50.46095459 -15.91715332 51.44217285 -16.59375 52.453125 C-17.17833984 53.33129883 -17.76292969 54.20947266 -18.36523438 55.11425781 C-18.90470703 55.73655273 -19.44417969 56.35884766 -20 57 C-20.99 57 -21.98 57 -23 57 C-27 52.11111111 -27 52.11111111 -27 49.0625 C-26 47 -26 47 -24.95703125 45.375 C-23.86520752 43.64596857 -22.92727613 41.82257722 -22 40 C-23.06770445 35.87507972 -25.23354076 33.36459587 -28.125 30.3125 C-32 26.20996441 -32 26.20996441 -32 24 C-38.435 26.475 -38.435 26.475 -45 29 C-46.98 27.02 -48.96 25.04 -51 23 C-50 20 -50 20 -47.98828125 18.79248047 C-47.10527344 18.40463379 -46.22226562 18.01678711 -45.3125 17.6171875 C-43.81577759 16.95553589 -43.81577759 16.95553589 -42.28881836 16.28051758 C-41.2035083 15.81669678 -40.11819824 15.35287598 -39 14.875 C-37.89470947 14.39506592 -36.78941895 13.91513184 -35.65063477 13.4206543 C-23.95868525 8.42089975 -12.02321981 4.1273278 0 0 Z " fill="#222124" transform="translate(691,194)"/>
<path d="M0 0 C7.625 0.875 7.625 0.875 11 2 C14.71149317 10.74952762 16.02123468 20.75585629 17.69311523 30.06542969 C17.84981689 30.93586914 18.00651855 31.80630859 18.16796875 32.703125 C18.37329224 33.87343262 18.37329224 33.87343262 18.58276367 35.06738281 C18.93127864 37.06955003 18.93127864 37.06955003 20 39 C20.44653931 37.74340576 20.44653931 37.74340576 20.90209961 36.46142578 C22.00622634 33.35624453 23.11148949 30.25147274 24.2175293 27.14697266 C24.6961768 25.8027344 25.17436952 24.45833411 25.65209961 23.11376953 C26.33848749 21.18218994 27.02650384 19.25119718 27.71484375 17.3203125 C28.12855225 16.15773926 28.54226074 14.99516602 28.96850586 13.79736328 C30 11 30 11 31 9 C33.97 9.99 36.94 10.98 40 12 C39.40896118 15.27273842 38.62605652 18.27264886 37.43359375 21.37548828 C37.11656494 22.20629913 36.79953613 23.03710999 36.47290039 23.89309692 C36.13121826 24.77657806 35.78953613 25.6600592 35.4375 26.5703125 C34.91047485 27.94737869 34.91047485 27.94737869 34.37280273 29.3522644 C33.25225852 32.27795358 32.12630098 35.20152277 31 38.125 C29.87485342 41.05605008 28.75080867 43.98752005 27.62719727 46.91915894 C26.92831019 48.74147773 26.22831369 50.5633715 25.52709961 52.38479614 C25.2100708 53.20930267 24.89304199 54.0338092 24.56640625 54.88330078 C24.28740479 55.60768341 24.00840332 56.33206604 23.72094727 57.07839966 C23.11045932 58.70558365 22.54958378 60.35124867 22 62 C18.63831591 61.53859238 15.88913591 60.81554901 13 59 C11.15683076 55.37401719 10.69118537 51.62543934 10.125 47.625 C9.74953359 45.45037638 9.37323736 43.27589587 8.99609375 41.1015625 C8.82835449 40.05258789 8.66061523 39.00361328 8.48779297 37.92285156 C7.8722767 34.23468299 7.06200597 30.63504326 6.1875 27 C5.95417969 26.01 5.72085938 25.02 5.48046875 24 C5.32191406 23.34 5.16335938 22.68 5 22 C4.83395264 22.58378418 4.66790527 23.16756836 4.49682617 23.76904297 C3.72778118 26.47123712 2.95764526 29.17311924 2.1875 31.875 C1.79594727 33.25171875 1.79594727 33.25171875 1.39648438 34.65625 C-0.35191527 40.78644134 -2.15183485 46.89914798 -4 53 C-7.96 52.505 -7.96 52.505 -12 52 C-11.46140579 46.0696723 -10.52757285 40.68925062 -8.8125 35 C-5.45690199 23.43721571 -2.74955827 11.71872841 0 0 Z " fill="#212225" transform="translate(512,84)"/>
<path d="M0 0 C18.88230081 6.801689 31.84555368 25.35879687 40.13671875 42.75390625 C45.07724862 53.62911235 48.18619223 64.93935345 48.0625 76.9375 C48.05347656 78.08089844 48.04445313 79.22429687 48.03515625 80.40234375 C48.02355469 81.25957031 48.01195312 82.11679687 48 83 C45.10324919 80.19377265 42.52329017 77.2695548 40 74.125 C37.41838341 70.9287128 34.82059768 67.77201128 32.09765625 64.6953125 C16.41750349 46.95258335 1.28596 24.43324009 0 0 Z " fill="#FBFAFA" transform="translate(449,416)"/>
<path d="M0 0 C-2.24241757 24.49628312 -15.5790397 45.4843469 -31.34204102 63.56713867 C-35.61566715 68.48407724 -39.65059503 73.56166023 -43.6105957 78.73364258 C-44.71945181 80.17215301 -45.85676779 81.58865517 -47 83 C-47.33 83 -47.66 83 -48 83 C-48.73691824 57.24880154 -39.49747399 35.26333172 -22.40234375 16.0859375 C-7.00327135 0 -7.00327135 0 0 0 Z " fill="#FBFBFB" transform="translate(393,416)"/>
<path d="M0 0 C6.75 3.75 6.75 3.75 9 6 C8.70076968 13.82042492 6.49665624 21.08519023 4.3125 28.5625 C3.95671875 29.79581055 3.6009375 31.02912109 3.234375 32.29980469 C0.57481578 41.37709955 -2.4127431 50.24926726 -6 59 C-10.68091299 59 -11.62101604 58.00354129 -15 55 C-14.7834375 54.31292969 -14.566875 53.62585938 -14.34375 52.91796875 C-14.0653125 52.01691406 -13.786875 51.11585938 -13.5 50.1875 C-13.2215625 49.29417969 -12.943125 48.40085938 -12.65625 47.48046875 C-11.87211649 44.94426605 -11.87211649 44.94426605 -12 42 C-14.03147854 40.22431524 -15.98153179 38.71287823 -18.1875 37.1875 C-18.76564453 36.75501953 -19.34378906 36.32253906 -19.93945312 35.87695312 C-21.86250243 34.46939268 -21.86250243 34.46939268 -25 33 C-28.42440057 33.74380492 -29.85703496 34.87490559 -32.5 37.1875 C-35 39 -35 39 -37.5625 39 C-40.423882 37.82609969 -41.88450221 36.21836554 -44 34 C-30.5327266 21.19450908 -15.22943216 10.57864186 0 0 Z " fill="#222124" transform="translate(623,133)"/>
<path d="M0 0 C1.43739513 -0.02712066 2.87493863 -0.04645067 4.3125 -0.0625 C5.51326172 -0.07990234 5.51326172 -0.07990234 6.73828125 -0.09765625 C9 0 9 0 12 1 C14.62924681 12.88755207 16.64411919 24.81037152 18.25 36.875 C18.42499023 38.1758252 18.59998047 39.47665039 18.78027344 40.81689453 C19.48680732 46.25805835 20.09710697 51.5051919 20 57 C16.53058454 56.54177532 13.32604951 56.10868317 10 55 C8.89771304 50.59085217 8.92345464 46.51617599 9 42 C7.63875 42.061875 7.63875 42.061875 6.25 42.125 C0.75538156 42.14765822 -4.61479886 40.99038182 -10 40 C-10.28875 40.886875 -10.5775 41.77375 -10.875 42.6875 C-11.83148748 45.50382424 -12.86798946 48.25083156 -14 51 C-21.75 51.125 -21.75 51.125 -24 50 C-21.64696966 42.23087177 -18.36257031 35.10317682 -14.8125 27.8125 C-14.52508942 27.2182724 -14.23767883 26.6240448 -13.94155884 26.0118103 C-9.64063359 17.12449022 -5.15399325 8.42389833 0 0 Z " fill="#212226" transform="translate(475,77)"/>
<path d="M0 0 C4.53285856 1.45788797 7.67849655 4.02144642 11.1875 7.125 C12.33871568 8.12499805 13.49107075 9.12368585 14.64453125 10.12109375 C15.21123535 10.61206543 15.77793945 11.10303711 16.36181641 11.60888672 C18.64134653 13.54461886 21.00616349 15.36280664 23.375 17.1875 C35.34496042 26.65802333 35.34496042 26.65802333 36.2734375 32.8125 C36.58466589 39.51588068 34.80513768 44.48754517 31 50 C26.43347872 54.81100043 22.75147375 58.1256558 16 58.375 C15.113125 58.42398438 14.22625 58.47296875 13.3125 58.5234375 C4.51514377 57.13328923 -3.45545932 51.03081493 -10.875 46.375 C-12.25945312 45.51648438 -12.25945312 45.51648438 -13.671875 44.640625 C-17.56153502 42.21663397 -21.36397728 39.79526383 -25 37 C-23.66511872 33.40608886 -22.03977277 30.24509304 -20 27 C-15.89880005 28.46663863 -12.52146464 30.47773558 -8.89453125 32.87890625 C-8.32925217 33.25103745 -7.76397308 33.62316864 -7.18156433 34.00657654 C-5.38906021 35.18768318 -3.6006516 36.3748165 -1.8125 37.5625 C-0.01287398 38.75255589 1.78757727 39.9413448 3.58869934 41.12913513 C5.21584765 42.20300843 6.84076869 43.28025424 8.46557617 44.35766602 C12.28075114 46.82994056 14.3999665 47.54118041 19 47 C22.57016579 43.98519334 24.75232066 41.85759504 25.375 37.1875 C24.56891417 30.33577047 15.87813936 25.41498496 10.70947266 21.32373047 C5.23748783 17.086498 -0.38950869 13.05075958 -6 9 C-4.38617243 5.59787701 -2.41396234 2.89675481 0 0 Z " fill="#222123" transform="translate(150,204)"/>
<path d="M0 0 C3.63 0 7.26 0 11 0 C11 6.93 11 13.86 11 21 C17.6 21 24.2 21 31 21 C31 14.4 31 7.8 31 1 C34.63 1 38.26 1 42 1 C41.73511721 6.01310913 41.46851363 11.02612301 41.20043945 16.0390625 C41.10981813 17.73793168 41.0196353 19.43682431 40.92993164 21.13574219 C40.49040984 29.45473581 40.03889081 37.77296339 39.49609375 46.0859375 C39.42447021 47.18728027 39.35284668 48.28862305 39.27905273 49.42333984 C39 52 39 52 38 54 C35.36 53.67 32.72 53.34 30 53 C30 45.41 30 37.82 30 30 C23.73 30 17.46 30 11 30 C11 37.59 11 45.18 11 53 C8.03 53 5.06 53 2 53 C1.71249939 46.89864073 1.42776281 40.79716083 1.14550781 34.69555664 C1.04924933 32.62293068 0.95225579 30.55033871 0.85449219 28.4777832 C0.71352656 25.48657888 0.57526698 22.4952594 0.4375 19.50390625 C0.39375244 18.58791153 0.35000488 17.67191681 0.30493164 16.72816467 C0.05097201 11.14536432 -0.03975908 5.58863531 0 0 Z " fill="#212225" transform="translate(408,73)"/>
<path d="M0 0 C2.48754883 1.03662109 2.48754883 1.03662109 4.15673828 4.09667969 C4.66044263 5.45137443 5.14028407 6.81509024 5.60083008 8.18505859 C5.86010788 8.91222076 6.11938568 9.63938293 6.38652039 10.38858032 C6.93163374 11.93360299 7.46643423 13.48229686 7.99169922 15.03417969 C8.78858233 17.3778969 9.62421569 19.70482861 10.46606445 22.03271484 C16.96471961 40.46298683 16.96471961 40.46298683 12.98754883 49.41162109 C8.49704207 54.12665319 2.91743817 57.69706081 -3.51245117 59.03662109 C-9.16541714 59.12779796 -13.22370592 57.85919838 -17.51245117 54.03662109 C-22.03030738 47.91765651 -25.18606892 40.82865288 -28.53344727 34.0234375 C-31.02944514 28.95061438 -33.68846122 23.99268851 -36.48120117 19.07568359 C-37.51245117 17.03662109 -37.51245117 17.03662109 -37.51245117 15.03662109 C-36.2233163 14.36507176 -34.93104913 13.6995325 -33.63745117 13.03662109 C-32.9181543 12.66537109 -32.19885742 12.29412109 -31.45776367 11.91162109 C-29.51245117 11.03662109 -29.51245117 11.03662109 -27.51245117 11.03662109 C-27.00645386 12.09405518 -27.00645386 12.09405518 -26.49023438 13.17285156 C-24.93602806 16.41953405 -23.3804976 19.66558048 -21.82495117 22.91162109 C-21.29450195 24.02021484 -20.76405273 25.12880859 -20.2175293 26.27099609 C-19.16129887 28.47417613 -18.10159617 30.67569507 -17.03833008 32.87548828 C-16.05214324 34.91855182 -15.07462835 36.96583422 -14.10766602 39.01806641 C-13.6779248 39.91364258 -13.24818359 40.80921875 -12.80541992 41.73193359 C-12.24697388 42.91166748 -12.24697388 42.91166748 -11.67724609 44.11523438 C-10.51251471 46.3427691 -10.51251471 46.3427691 -7.51245117 48.03662109 C-5.54747613 48.13791562 -5.54747613 48.13791562 -3.51245117 47.78662109 C-2.83182617 47.69896484 -2.15120117 47.61130859 -1.44995117 47.52099609 C0.79357991 47.07550999 0.79357991 47.07550999 3.48754883 45.03662109 C5.66231758 36.60294902 1.25241868 28.24592172 -1.94995117 20.66162109 C-2.97449037 18.17667671 -3.9908278 15.68843655 -5.00854492 13.20068359 C-5.46414795 12.11223145 -5.91975098 11.0237793 -6.38916016 9.90234375 C-7.29041246 7.60308283 -8.00010589 5.44504446 -8.51245117 3.03662109 C-3.37405189 0.04917965 -3.37405189 0.04917965 0 0 Z " fill="#212224" transform="translate(304.512451171875,93.96337890625)"/>
<path d="M0 0 C1.20527344 -0.02578125 2.41054688 -0.0515625 3.65234375 -0.078125 C7.42468801 0.28484971 9.15464807 0.84280432 12.0625 3.25 C15.50474663 8.25213182 15.37958284 12.73369789 15.375 18.5625 C15.54794755 26.36824918 16.63561658 31.34518082 22.0625 37.25 C23.67630195 40.47760391 23.46185648 42.65579169 23.0625 46.25 C19.39231404 54.0666556 12.16282489 61.96268369 4.0625 65.25 C-0.65171263 66.27519419 -4.47757074 66.00396347 -8.7890625 63.77734375 C-15.43850247 59.17036262 -21.28108067 53.56283867 -24.9375 46.25 C-25.54227769 42.09215339 -25.79149685 39.5802203 -23.48046875 35.98046875 C-22.86816406 35.16191406 -22.25585938 34.34335937 -21.625 33.5 C-17.37715566 27.43530658 -16.6896276 21.5344287 -16.00073242 14.33105469 C-15.44297828 9.00359463 -14.61355048 5.41619054 -10.9375 1.25 C-7.60141101 -0.32836469 -3.64418171 0.04667042 0 0 Z M-8.73828125 7.890625 C-10.22123745 10.80823264 -10.60703843 13.31579808 -11 16.5625 C-11.81701226 22.54945867 -12.55446157 27.80308585 -15.5625 33.125 C-17.43075971 37.37104479 -17.95255939 40.69318663 -16.9375 45.25 C-13.68694976 51.69356862 -9.33313269 56.87775731 -2.9375 60.25 C1.55665912 60.63248163 3.85967205 58.82441266 7.1875 56.0625 C12.03206585 51.50508815 15.70170185 47.25589381 16.30859375 40.34765625 C16.00804558 37.78584087 15.1255624 36.50499967 13.6875 34.375 C10.29009415 29.0839581 10.49690413 23.74050812 10.60400391 17.63330078 C10.58531424 13.48864462 10.39546943 11.7167626 7.9140625 8.23828125 C4.61153104 5.93555726 2.92595698 5.60253287 -1.0625 5.6875 C-2.61324219 5.68556641 -2.61324219 5.68556641 -4.1953125 5.68359375 C-6.99014359 6.01783488 -6.99014359 6.01783488 -8.73828125 7.890625 Z " fill="#2C2829" transform="translate(421.9375,592.75)"/>
<path d="M0 0 C2.91985181 0.68088981 5.35122304 1.58101234 8 3 C7.13816879 7.31917734 5.04958214 10.82328143 2.9609375 14.66015625 C1.66646231 17.08758744 1.66646231 17.08758744 3 20 C4.7309337 21.1954602 4.7309337 21.1954602 6.91015625 22.1640625 C7.72838867 22.55996582 8.54662109 22.95586914 9.38964844 23.36376953 C10.27168945 23.77997559 11.15373047 24.19618164 12.0625 24.625 C21.25352909 29.07799227 30.16086048 33.88910089 39 39 C37.94124926 42.40312738 36.99097846 45.01353231 35 48 C26.57381537 45.51736729 18.90465179 41.69631527 11.0625 37.8125 C9.07630588 36.83131 7.08933836 35.85184051 5.09996033 34.87712097 C3.3133469 34.00147985 1.52975731 33.11967699 -0.25366211 32.23754883 C-2.80185498 30.86305565 -2.80185498 30.86305565 -5 31 C-6.98 35.62 -8.96 40.24 -11 45 C-18 44 -18 44 -20 43 C-19.38330533 39.29024171 -18.33199047 36.17363383 -16.77734375 32.75390625 C-16.32464111 31.75746094 -15.87193848 30.76101563 -15.40551758 29.734375 C-14.92107178 28.68765625 -14.43662598 27.6409375 -13.9375 26.5625 C-13.44596436 25.49386719 -12.95442871 24.42523438 -12.44799805 23.32421875 C-8.70342705 15.28388564 -4.64337926 7.557133 0 0 Z " fill="#222124" transform="translate(120,248)"/>
<path d="M0 0 C8.20511361 4.05786665 8.20511361 4.05786665 10 7 C10.36083753 11.4340205 9.71839506 15.6252218 9 20 C8.73509766 21.63001953 8.73509766 21.63001953 8.46484375 23.29296875 C8.01447734 25.87173345 7.51881101 28.43442868 7 31 C7.58491211 30.81300537 8.16982422 30.62601074 8.77246094 30.43334961 C11.4284091 29.5907893 14.08901785 28.76401718 16.75 27.9375 C17.67039062 27.64294922 18.59078125 27.34839844 19.5390625 27.04492188 C20.42851563 26.77099609 21.31796875 26.49707031 22.234375 26.21484375 C23.05131836 25.95823975 23.86826172 25.70163574 24.70996094 25.43725586 C27.25895891 24.95055486 28.60559518 25.02049923 31 26 C32.7143618 27.95927063 34.38405168 29.95880212 36 32 C36.99 32.495 36.99 32.495 38 33 C38 33.66 38 34.32 38 35 C36.73027344 35.24234375 35.46054687 35.4846875 34.15234375 35.734375 C29.62760244 36.60575759 25.11780982 37.54145303 20.60742188 38.48388672 C18.36111863 38.92852015 16.12411136 39.2959562 13.859375 39.62890625 C2.0101189 41.83488478 -4.33309159 49.15799202 -12 58 C-14.8605891 56.64062915 -16.85927699 55.35479531 -19 53 C-17.66439833 49.64123841 -15.63632285 47.5392511 -13.06445312 45.04589844 C-6.52028623 38.58257626 -4.07352283 33.18862764 -3 24 C-2.72685124 21.94640236 -2.45195261 19.89303709 -2.17578125 17.83984375 C-1.39446948 11.89942173 -0.67906387 5.95290826 0 0 Z " fill="#212225" transform="translate(644,149)"/>
<path d="M0 0 C3.75066408 1.3308808 4.42855071 2.57140094 7 6 C3.7 9.3 0.4 12.6 -3 16 C-1.90445179 19.28664464 -1.22061852 19.88271647 1.375 22.00390625 C6.88496512 26.67876728 11.91725319 31.80857808 17 36.9375 C17.97502386 37.9175531 18.9502828 38.8973724 19.92578125 39.87695312 C22.28616618 42.24902313 24.64416905 44.6234086 27 47 C25.31847927 50.74020498 23.30960527 52.56134348 20 55 C19.3709375 54.35933594 18.741875 53.71867187 18.09375 53.05859375 C13.61890801 48.53657723 9.12218363 44.13183448 4.28515625 40 C0.57493282 36.75276172 -3.01305102 33.37183905 -6.60864258 29.99853516 C-9.5677269 27.17466927 -9.5677269 27.17466927 -13 25 C-13.38285156 25.85851562 -13.38285156 25.85851562 -13.7734375 26.734375 C-15.13087159 29.24173733 -16.71974104 31.1330456 -18.625 33.25 C-19.25664062 33.95640625 -19.88828125 34.6628125 -20.5390625 35.390625 C-21.02117187 35.92171875 -21.50328125 36.4528125 -22 37 C-24.31 35.35 -26.62 33.7 -29 32 C-27.3078337 27.95265488 -24.5264386 24.84255762 -21.6875 21.5625 C-21.16494629 20.95575439 -20.64239258 20.34900879 -20.10400391 19.72387695 C-16.17927709 15.22492758 -12.09319502 10.9116353 -7.875 6.6875 C-7.31901123 6.13070557 -6.76302246 5.57391113 -6.19018555 5.00024414 C-2.27037387 1.13518694 -2.27037387 1.13518694 0 0 Z " fill="#212326" transform="translate(185,166)"/>
<path d="M0 0 C11.11961513 4.4231358 11.11961513 4.4231358 15 9 C16.57095665 14.89910251 15.03394611 19.54998962 12.25 24.8125 C5.86362581 35.426474 5.86362581 35.426474 1 37 C-5.13553644 38.02258941 -9.80073117 34.87706576 -15 32 C-10.27711048 21.18028947 -5.40171302 10.49957968 0 0 Z " fill="#008DD0" transform="translate(569,113)"/>
<path d="M0 0 C0.6708712 1.6232687 1.33657029 3.24867578 2 4.875 C2.37125 5.77992188 2.7425 6.68484375 3.125 7.6171875 C4 10 4 10 4 12 C2.2828479 12.70346558 2.2828479 12.70346558 0.53100586 13.42114258 C-3.73892018 15.17057674 -8.00854253 16.92075101 -12.27807617 18.67114258 C-14.1217441 19.42687669 -15.96549299 20.18241331 -17.80932617 20.93774414 C-20.46815244 22.02697975 -23.12668133 23.11693843 -25.78515625 24.20703125 C-26.60210464 24.54152786 -27.41905304 24.87602448 -28.26075745 25.22065735 C-29.04103806 25.54076279 -29.82131866 25.86086823 -30.62524414 26.19067383 C-31.36799591 26.49300934 -32.11074768 26.79534485 -32.87600708 27.10684204 C-34.25910703 27.6884479 -35.63101366 28.29767866 -36.98800659 28.93783569 C-39.5184203 30.12424153 -41.50405066 31.01248195 -44.328125 30.94140625 C-46.62884852 29.64590539 -46.96084797 28.4233289 -47.75 25.9375 C-47.99234375 25.20402344 -48.2346875 24.47054688 -48.484375 23.71484375 C-48.65453125 23.14894531 -48.8246875 22.58304687 -49 22 C-38.38065013 16.457973 -27.5328758 11.44177935 -16.625 6.5 C-15.92043671 6.17932556 -15.21587341 5.85865112 -14.48995972 5.52825928 C-12.46654283 4.60835589 -10.44076398 3.6938903 -8.4140625 2.78125 C-7.2276416 2.24564453 -6.0412207 1.71003906 -4.81884766 1.15820312 C-2 0 -2 0 0 0 Z " fill="#222124" transform="translate(746,279)"/>
<path d="M0 0 C2.00106296 12.75849616 3.97970523 25.51963573 5.75 38.3125 C5.87737549 39.21758301 6.00475098 40.12266602 6.13598633 41.05517578 C6.68201365 45.06447799 7.16733849 48.9420415 7 53 C2.545 53.495 2.545 53.495 -2 54 C-3.14697275 47.57840154 -4.28605744 41.1554716 -5.41796875 34.73120117 C-5.8038422 32.54755239 -6.19183938 30.36427775 -6.58203125 28.18139648 C-7.14366246 25.03726464 -7.6975527 21.89185061 -8.25 18.74609375 C-8.42499023 17.7760289 -8.59998047 16.80596405 -8.78027344 15.8065033 C-9.65357481 10.78790319 -10.19698765 6.09397751 -10 1 C-3.375 0 -3.375 0 0 0 Z " fill="#222224" transform="translate(378,76)"/>
<path d="M0 0 C1.47901666 2.77315624 1.38601984 4.78684125 1 7.875 C-1.35278026 11.03330842 -4.27934749 11.9131522 -7.9375 13.125 C-8.97777344 13.48078125 -10.01804687 13.8365625 -11.08984375 14.203125 C-14 14.875 -14 14.875 -18 13.875 C-18.99 9.915 -19.98 5.955 -21 1.875 C-5.13043478 -2.88586957 -5.13043478 -2.88586957 0 0 Z " fill="#018CCE" transform="translate(350,93.125)"/>
<path d="M0 0 C-3.3 5.28 -6.6 10.56 -10 16 C-13.66161578 14.77946141 -14.16270474 13.63217696 -16.1875 10.4375 C-16.98220703 9.19806641 -16.98220703 9.19806641 -17.79296875 7.93359375 C-18.19128906 7.29550781 -18.58960938 6.65742188 -19 6 C-3.91150442 -1.95575221 -3.91150442 -1.95575221 0 0 Z " fill="#0189CA" transform="translate(686,208)"/>
<path d="M0 0 C0.66 0.33 1.32 0.66 2 1 C3.65155878 6.89259861 4.27098599 12.90281525 4 19 C-4.57142857 18 -4.57142857 18 -8 17 C-6.3341708 10.83643195 -3.12194714 5.51740344 0 0 Z " fill="#0288C8" transform="translate(478,91)"/>
<path d="M0 0 C-1.6813917 6.48707154 -3.53062327 12.7677635 -6 19 C-9.40755272 17.07119658 -12.74147635 15.1723491 -16 13 C-14.47379196 8.8410831 -11.46451578 6.75850553 -8 4.25 C-7.18015625 3.63318359 -7.18015625 3.63318359 -6.34375 3.00390625 C-2.27200997 0 -2.27200997 0 0 0 Z " fill="#018BCC" transform="translate(621,147)"/>
<path d="M0 0 C0.66 0.66 1.32 1.32 2 2 C1.65561395 6.13263259 -0.06429969 9.38108204 -2 13 C-2.66 13 -3.32 13 -4 13 C-3.79503906 12.39671875 -3.59007812 11.7934375 -3.37890625 11.171875 C-2.97478516 9.97304688 -2.97478516 9.97304688 -2.5625 8.75 C-2.29566406 7.96109375 -2.02882813 7.1721875 -1.75390625 6.359375 C-1.08045292 4.25178012 -0.50849405 2.15246027 0 0 Z " fill="#544923" transform="translate(426,537)"/>
</svg>
